<?xml version="1.0" encoding="UTF-8" standalone="no"?>
<svg
   xmlns:dc="http://purl.org/dc/elements/1.1/"
   xmlns:cc="http://creativecommons.org/ns#"
   xmlns:rdf="http://www.w3.org/1999/02/22-rdf-syntax-ns#"
   xmlns:svg="http://www.w3.org/2000/svg"
   xmlns="http://www.w3.org/2000/svg"
   xmlns:sodipodi="http://sodipodi.sourceforge.net/DTD/sodipodi-0.dtd"
   xmlns:inkscape="http://www.inkscape.org/namespaces/inkscape"
   version="1.1"
   width="273.58182"
   height="216.84891"
   viewBox="0 0 273.58182 216.84891"
   id="Layer_1"
   xml:space="preserve"
   sodipodi:docname="Serta_Logo.svg"
   inkscape:version="1.0.1 (3bc2e813f5, 2020-09-07)"><sodipodi:namedview
     pagecolor="#ffffff"
     bordercolor="#666666"
     borderopacity="1"
     objecttolerance="10"
     gridtolerance="10"
     guidetolerance="10"
     inkscape:pageopacity="0"
     inkscape:pageshadow="2"
     inkscape:window-width="1920"
     inkscape:window-height="1001"
     id="namedview98"
     showgrid="false"
     fit-margin-top="0"
     fit-margin-left="0"
     fit-margin-right="0"
     fit-margin-bottom="0"
     inkscape:zoom="2.3055556"
     inkscape:cx="140.06784"
     inkscape:cy="139.56386"
     inkscape:window-x="-9"
     inkscape:window-y="-9"
     inkscape:window-maximized="1"
     inkscape:current-layer="Layer_1" /><metadata
     id="metadata87"><rdf:RDF><cc:Work
         rdf:about=""><dc:format>image/svg+xml</dc:format><dc:type
           rdf:resource="http://purl.org/dc/dcmitype/StillImage" /><dc:title></dc:title></cc:Work></rdf:RDF></metadata><defs
     id="defs85" /><path
     d="m 82.174837,95.508865 c 0.094,0 -4.428,-3.895 -6.11,-5.578 -2.584,-2.584 -2.564,-6.44 -2.564,-8.486 0,-2.047 0,-10.26 0,-12.494 0,-2.232 2.612,-3.637 4.478,-3.545 1.864,0.094 4.336,1.213 4.336,3.545 v 16.09 h 11.893 c 0,0 0,-16.09 0,-19.635 0,-2.804 -3.726,-13.057 -16.229,-13.104 -12.505,-0.046 -16.23,7.14 -16.23,13.104 0,5.965 0,18.188 0,21.448 0,3.258 1.399,9.426 6.436,13.530995 3.75,3.05601 5.133,4.314 5.133,4.314"
     id="path5"
     style="fill:#002b5c" /><path
     d="m 73.316837,104.69986 c -0.094,0 4.943,4.313 6.626,5.994 2.584,2.58601 2.564,6.442 2.564,8.489 0,2.04401 -0.052,11.463 -0.052,13.697 0,2.231 -2.613,3.637 -4.477,3.542 -1.866,-0.092 -4.338,-1.21 -4.338,-3.542 l 0.053,-17.29499 h -11.892 c 0,0 -0.053,17.295 -0.053,20.83799 0,2.808 3.725,13.059 16.23,13.106 12.503,0.046 16.229,-7.141 16.229,-13.106 0,-5.963 0.053,-19.39199 0.053,-22.651 0,-3.257 -1.398,-9.425 -6.437,-13.531 -3.75,-3.052995 -5.649,-4.731995 -5.649,-4.731995"
     id="path7"
     style="fill:#002b5c" /><path
     d="m 147.93684,148.70086 h -11.663 V 75.941865 h 11.663 v 3.225 c 2.421,-2.047 3.667,-2.799 8.109,-2.799 v 0 0 11.752 c -5.122,0 -8.109,2.478 -8.109,6.296 0,3.265 0,54.284995 0,54.284995 z"
     id="path9"
     style="fill:#002b5c" /><g
     id="g11"
     transform="translate(-39.932163,-40.436135)"><polygon
       points="219.204,100.014 219.204,116.803 229.278,116.803 229.278,128.555 219.204,128.555 219.204,188.997 219.204,188.997 207.732,188.997 207.732,128.555 201.437,128.555 201.437,116.803 207.732,116.803 207.732,100.014 "
       id="polygon13"
       style="fill:#002b5c" /><path
       d="m 300.274,111.738 c -0.82,-1.093 -1.993,-0.271 -1.229,0.682 6.347,7.917 18.086,33.237 0.408,64.019 -16.104,28.044 -57.067,58.824 -127.488,56.509 -58.148,-1.91 -113.021,-37.946 -112.474,-85.994 0.478,-42.04 40.062,-98.825 118.685,-101.281 10.446,-0.326 24.773,-0.205 35.83,1.433 27.761,4.111 40.765,8.732 52.483,14.059 1.502,0.683 1.638,-0.477 0.752,-1.024 -8.775,-5.398 -33.3,-18.533 -80.262,-19.656 -68.52,-1.637 -137.384,37.947 -146.324,105.104 -8.615,64.717 61.151,110.017 135.952,111.657 74.8,1.639 131.23,-48.603 136.498,-99.919 3.14,-30.575 -12.831,-45.589 -12.831,-45.589 z"
       id="path15"
       style="fill:#fff200" /></g><path
     d="m 206.13484,113.86287 c -0.7,0.83799 -1.12,1.67799 -1.12,4.19599 0,2.51901 -0.139,13.812 0,15.911 0.142,2.098 1.961,2.979 3.498,2.979 1.539,0 3.359,-0.87999 3.359,-2.979 0,-2.1 0,-24.585 0,-24.585 0,0 -5.037,3.638 -5.737,4.47801 z m 17.49,34.69799 h -11.752 c 0,0 0.083,-3.749 0,-3.638 -1.261,1.679 -4.62,3.535 -7.697,3.638 -4.196,0.14 -10.912,-2.197 -10.772,-8.396 0.14,-6.194 0,-16.788 0,-22.38499 0,-5.59701 2.658,-9.23301 5.176,-11.19301 2.519,-1.958 4.899,-4.197 7.276,-5.876 2.379,-1.678995 5.876,-4.708995 6.018,-7.414995 0.137,-2.706 0,-1.625 0,-3.779 0,-3.41 -2.24,-4.056 -3.359,-4.056 -1.12,0 -3.498,0.646 -3.498,3.918 v 8.674 h -11.612 c 0,0 0,-4.669 0,-11.946 0,-7.275 8.676,-11.7 15.11,-11.7 6.854,0 15.111,4.519 15.111,11.7 -0.001,6.297 -0.001,62.453995 -0.001,62.453995 z"
     id="path17"
     style="fill:#002b5c" /><path
     d="m 118.55184,90.589865 c 0,-2.71 -2.425,-3.269 -3.265,-3.269 -0.839,0 -3.171,0.378 -3.171,3.269 v 13.613005 h 6.437 c -0.001,10e-4 -0.001,-11.845005 -0.001,-13.613005 z m 11.752,24.952005 h -18.188 v 18.42899 c 0,2.14 1.867,3.166 3.266,3.166 1.399,0 3.171,-1.01499 3.171,-3.166 v -9.526 h 11.752 v 12.505 c 0,9.702 -7.648,12.488 -14.832,12.596 -6.154,0.094 -15.016,-2.797 -15.109,-12.686 -0.092,-9.884 0,-42.629995 0,-50.751995 0,-8.667 9.422,-11.559 14.737,-11.559 5.316,0 15.203,2.979 15.203,11.559 0,6.15 0,29.433995 0,29.434005 z"
     id="path19"
     style="fill:#002b5c" /><path
     d="m 264.30584,180.97886 c 0.856,0 1.622,-0.062 1.622,-1.088 0,-0.826 -0.748,-0.978 -1.453,-0.978 h -1.377 v 2.065 h 1.208 z m -1.208,3.747 h -1.01 v -6.67 h 2.537 c 1.578,0 2.358,0.581 2.358,1.896 0,1.195 -0.751,1.712 -1.729,1.836 l 1.896,2.938 h -1.132 l -1.759,-2.894 h -1.162 v 2.894 z m 1.223,1.484 c 2.615,0 4.68,-2.051 4.68,-4.834 0,-2.738 -2.064,-4.802 -4.68,-4.802 -2.647,0 -4.711,2.063 -4.711,4.802 0,2.783 2.063,4.834 4.711,4.834 z m -5.872,-4.834 c 0,-3.319 2.691,-5.767 5.872,-5.767 3.151,0 5.845,2.447 5.845,5.767 0,3.351 -2.693,5.797 -5.845,5.797 -3.181,-10e-4 -5.872,-2.447 -5.872,-5.797 z"
     id="path21"
     style="fill:#002b5c" /></svg>
