<?xml version="1.0" encoding="utf-8"?>
<!-- Generator: Adobe Illustrator 27.2.0, SVG Export Plug-In . SVG Version: 6.00 Build 0)  -->
<svg version="1.1" id="Layer_1" xmlns="http://www.w3.org/2000/svg" xmlns:xlink="http://www.w3.org/1999/xlink" x="0px" y="0px"
	 viewBox="0 0 360 144" style="enable-background:new 0 0 360 144;" xml:space="preserve">
<style type="text/css">
	.st0{fill-rule:evenodd;clip-rule:evenodd;fill:#0058AB;}
	.st1{fill-rule:evenodd;clip-rule:evenodd;fill:#FBD914;}
	.st2{fill-rule:evenodd;clip-rule:evenodd;fill:#0058A3;}
</style>
<path class="st0" d="M359.95,144H0V0h360v144H359.95z"/>
<path class="st1" d="M7.2,72c0,35.4,72.42,64.8,172.82,64.8c100.41,0,172.77-29.4,172.77-64.8S280.38,7.2,180.02,7.2
	C79.67,7.2,7.2,36.6,7.2,72L7.2,72z"/>
<path class="st2" d="M167.21,93.62c1.13,1.61,2.37,3.12,3.82,4.48h-38.96c0-1.51-1.49-4.58-3.15-7
	c-1.65-2.42-10.58-15.66-10.58-15.66v18.18c0,1.51,0,2.97,0.77,4.48H86.67c0.77-1.51,0.77-2.97,0.77-4.48V50.4
	c0-1.51,0-2.97-0.77-4.48h32.45c-0.77,1.51-0.77,2.97-0.77,4.48v18.89c0,0,10.37-13.19,12.74-16.27c1.81-2.32,4.02-5.59,4.02-7.1
	h33.85c-2.32,1.51-4.9,4.23-7.02,6.75c-1.86,2.22-12.38,14.76-12.38,14.76S165.15,90.64,167.21,93.62L167.21,93.62z M177.43,50.4
	v43.21c0,1.51,0,2.97-0.77,4.48h62.64V83.6c-1.55,0.75-3.05,0.75-4.59,0.75h-26.37V77.5h25.33V66.52h-25.33v-6.9h26.37
	c1.55,0,3.05,0,4.59,0.71V45.87h-62.64C177.43,47.43,177.43,48.89,177.43,50.4L177.43,50.4z M326.08,93.62
	c0.52,1.66,1.39,3.17,2.53,4.48h-33.95c0.15-1.51-0.41-2.97-1.03-4.48c0,0-0.52-1.21-1.24-2.97l-0.31-0.76h-19.55l-0.31,0.81
	c0,0-0.57,1.46-1.08,2.97c-0.52,1.51-1.08,2.97-0.88,4.48h-26.78c1.08-1.31,1.91-2.82,2.42-4.48l16.05-43.21
	c0.57-1.51,1.13-2.97,0.93-4.48h45.25c-0.41,1.51,0.41,2.97,0.98,4.48C310.45,53.73,324.95,90.69,326.08,93.62z M287.8,78.86
	l-4.74-12.09c-0.41-1.11-0.77-2.27-1.03-3.43c-0.2,1.16-0.52,2.32-0.93,3.43c-0.15,0.5-2.17,5.79-4.49,12.09H287.8z M71.3,45.92H36
	c0.77,1.51,0.77,2.97,0.77,4.48v43.21c0,1.51,0,2.97-0.77,4.48h35.3c-0.77-1.51-0.77-2.97-0.77-4.48V50.4
	C70.52,48.89,70.52,47.43,71.3,45.92z M315.24,50.05c-0.15-3.68,2.79-6.75,6.56-6.85h0.46c3.82-0.05,6.96,2.87,7.02,6.6v0.25
	c0.1,3.78-2.94,6.95-6.86,7.05c-3.87,0.1-7.12-2.87-7.23-6.7C315.24,50.3,315.24,50.15,315.24,50.05L315.24,50.05z M316.64,50.05
	c0,3.02,2.53,5.49,5.63,5.49s5.62-2.47,5.62-5.49c0-3.02-2.53-5.49-5.62-5.49c-2.99-0.1-5.52,2.17-5.63,5.09V50.05z M320.87,54.13
	h-1.24v-8.26h3.15c1.5,0.05,2.63,1.21,2.63,2.67c0,1.01-0.57,1.91-1.5,2.42l1.81,3.17h-1.39l-1.65-2.92h-1.8v2.92H320.87z
	 M320.87,50.05h1.7c0.82,0.05,1.55-0.55,1.55-1.36s-0.57-1.51-1.39-1.51h-1.86V50.05z"/>
</svg>
