<?xml version="1.0" encoding="utf-8"?>
<!-- Generator: Adobe Illustrator 27.2.0, SVG Export Plug-In . SVG Version: 6.00 Build 0)  -->
<svg version="1.1" id="_x3C_Layer_x3E_" xmlns="http://www.w3.org/2000/svg" xmlns:xlink="http://www.w3.org/1999/xlink" x="0px"
	 y="0px" viewBox="0 0 462.07 75.14" style="enable-background:new 0 0 462.07 75.14;" xml:space="preserve">
<style type="text/css">
	.st0{fill:#1A2A59;}
</style>
<path class="st0" d="M145.19,51.5h10.38c8.7,0,14.61-5.73,14.61-13.94c0-8.2-5.9-13.98-14.61-13.98h-10.38V51.5z M150.09,47.19V27.9
	h5.48c6.24,0,9.58,4.27,9.58,9.67c0,5.27-3.51,9.63-9.58,9.63h-5.48V47.19z M195.04,51.5h5.65l-6.82-10.97
	c3.35-0.54,6.61-3.22,6.61-8.2c0-5.15-3.6-8.75-9.12-8.75h-12.27V51.5h4.9V41.08h4.86L195.04,51.5z M195.45,32.33
	c0,2.68-2.01,4.44-4.77,4.44h-6.7V27.9h6.7C193.44,27.9,195.45,29.66,195.45,32.33 M209.56,51.5h19.13v-4.31h-14.23v-7.74h13.94
	v-4.31h-13.94V27.9h14.23v-4.31h-19.13V51.5z M257.65,51.5h5.36l-10.97-27.91h-6.11l-10.97,27.92h5.36l2.05-5.36h13.23L257.65,51.5z
	 M248.99,27.73l5.23,14.1h-10.46L248.99,27.73z M294.35,51.5h4.9V23.59h-6.91l-7.62,18.79l-7.58-18.79h-6.9v27.92h4.9V30.37
	l8.54,21.14h2.09l8.58-21.14V51.5z M322.56,52c5.86,0,9.29-2.93,11.43-6.28l-4.19-2.13c-1.34,2.34-4.02,4.06-7.24,4.06
	c-5.32,0-9.42-4.23-9.42-10.09s4.1-10.09,9.42-10.09c3.22,0,5.9,1.76,7.24,4.06l4.19-2.13c-2.09-3.35-5.57-6.28-11.43-6.28
	c-8.04,0-14.44,5.86-14.44,14.44C308.12,46.15,314.52,52,322.56,52 M342.09,51.5h17.2v-4.31h-12.3v-23.6h-4.9L342.09,51.5
	L342.09,51.5z M365.37,37.57c0,8.33,5.9,14.44,14.27,14.44s14.27-6.11,14.27-14.44s-5.9-14.44-14.27-14.44
	C371.27,23.13,365.37,29.24,365.37,37.57 M388.89,37.57c0,5.73-3.64,10.09-9.25,10.09c-5.65,0-9.25-4.35-9.25-10.09
	c0-5.78,3.6-10.09,9.25-10.09C385.25,27.48,388.89,31.79,388.89,37.57 M402.81,40.5c0,6.86,3.98,11.51,12.1,11.51
	c8.08,0,12.05-4.6,12.05-11.55V23.59h-4.94v16.74c0,4.44-2.47,7.32-7.11,7.32c-4.69,0-7.16-2.89-7.16-7.32V23.59h-4.94V40.5z
	 M437.08,51.5h10.38c8.71,0,14.61-5.73,14.61-13.94c0-8.2-5.9-13.98-14.61-13.98h-10.38V51.5z M441.98,47.19V27.9h5.48
	c6.24,0,9.58,4.27,9.58,9.67c0,5.27-3.52,9.63-9.58,9.63h-5.48V47.19z"/>
<g>
	<path class="st0" d="M57.26,22.61c11.69,0,21.88,6.75,27.24,16.75c0.9-2.92,1.39-6.03,1.39-9.26C85.89,13.48,73.07,0,57.26,0
		S28.63,13.48,28.63,30.1c0,3.23,0.49,6.34,1.39,9.26C35.38,29.36,45.57,22.61,57.26,22.61"/>
	<path class="st0" d="M8.22,62.78c1.53,0.78,3.14,1.31,4.78,1.62c-3.19-4.75-3.45-10.83-0.1-15.95s9.47-7.96,15.73-7.9
		c-1.12-1.1-2.45-2.06-3.98-2.84c-7.86-4-17.91-1.62-22.44,5.3C-2.33,49.94,0.36,58.79,8.22,62.78"/>
	<path class="st0" d="M111.1,51.21c4.61,7.68,4.24,16.81-0.14,23.93c2.25-0.46,4.47-1.26,6.57-2.43
		c10.81-5.99,14.51-19.27,8.27-29.65c-6.24-10.38-20.05-13.94-30.86-7.95c-2.1,1.16-3.93,2.61-5.47,4.25
		C98.07,39.27,106.48,43.53,111.1,51.21"/>
</g>
</svg>
