<?xml version="1.0" encoding="utf-8"?>
<!-- Generator: Adobe Illustrator 27.2.0, SVG Export Plug-In . SVG Version: 6.00 Build 0)  -->
<svg version="1.1" id="Layer_1" xmlns="http://www.w3.org/2000/svg" xmlns:xlink="http://www.w3.org/1999/xlink" x="0px" y="0px"
	 viewBox="0 0 503.26 139.13" style="enable-background:new 0 0 503.26 139.13;" xml:space="preserve">
<style type="text/css">
	.st0{fill:#FFFFFF;}
	.st1{fill:#E31837;}
	.st2{fill:#005DAA;}
	.st3{font-family:'Napoli-Serial-Regular';}
	.st4{font-size:24px;}
</style>
<g>
	<path class="st0" d="M236,97c-78.67,0-157.33,0-236,0C0,64.67,0,32.33,0,0c150,0,300,0,450,0c0,32.33,0,64.67,0,97
		c-71,0-142,0-213,0c5.65-3.56,6.17-8.89,6.04-15.02c-0.35-16.32-0.13-32.66-0.11-48.99c0-1.76,0.16-3.52,0.25-5.16
		c14.99-2.42,14.99-2.42,15.2-5.17c-5.08,0-10.12,0-15.06,0c-1.02-10.97,2.19-14.57,16.43-17.81c-1.73-1.75-2.77-3.77-4.04-3.94
		c-9.8-1.26-18.9,6.61-19.41,16.48c-0.08,1.62-0.15,3.25-0.2,4.45c-2.42,2.38-8.04-1.17-8.13,5.05c3.16,0.27,5.57,0.47,8.06,0.69
		c0.1,1.64,0.24,2.79,0.24,3.94C236.18,53.35,236.09,75.18,236,97z M360.02,74.71c0-10.95-0.08-21.41,0.02-31.88
		c0.08-8.17,4.7-14.03,12.05-15.66c9.77-2.16,17.8,3.98,17.93,13.98c0.15,11.11,0.03,22.23,0.03,33.42c2.26,0,3.94,0,5.94,0
		c0-11.39-0.21-22.37,0.06-33.33c0.22-9.06,6.13-14.43,15.12-14.45c8.53-0.02,14.48,5.46,14.77,14.25
		c0.32,9.48,0.13,18.98,0.17,28.47c0.01,1.74,0,3.49,0,5.58c2.4-0.18,3.96-0.3,5.72-0.44c0-12.4,0.29-24.38-0.1-36.33
		c-0.25-8.41-6.09-14.42-14.45-16.2c-9.51-2.03-17.3,0.86-23.5,8.76c-3.72-6.49-9.42-8.84-16.01-9.35
		c-6.87-0.54-12.33,2.83-17.51,7.5c-0.32-2.38-0.56-4.11-0.83-6.14c-1.88,0.13-3.44,0.24-5.1,0.36c0,17.34,0,34.26,0,51.47
		C356.16,74.71,357.75,74.71,360.02,74.71z M284.65,76.24c16.52,0.12,28-10.99,28.1-27.19c0.1-16.62-11.11-27.86-27.88-27.94
		c-16.69-0.08-28.1,10.79-28.32,26.98C256.32,65.03,267.38,76.11,284.65,76.24z M87.43,76.23c16.48,0.13,27.79-10.84,28.07-27.23
		c0.28-16.37-11.18-27.81-27.95-27.89c-16.82-0.08-28.25,11.03-28.3,27.53C59.19,65.18,70.34,76.09,87.43,76.23z M214.95,48.69
		c-9.69-5.83-19.58-6.2-29.69-3.05c-7.5,2.34-12.16,8.37-12.04,14.85c0.13,6.46,4.58,11.83,12.33,13.9
		c9.82,2.62,19.45,2.49,28.19-3.74c0.33-0.24,0.84-0.22,1.39-0.35c0.26,1.58,0.5,3,0.75,4.46c1.93,0,3.53,0,5.63,0
		c0-10.88,0.13-21.51-0.03-32.14c-0.17-11.62-5.67-18.03-17.29-19.27c-6.73-0.71-13.6-0.1-20.41-0.04c-3.83,0.03-4.33,2.1-3.44,4.53
		c6.85,0,13.31-0.39,19.72,0.08C212.64,28.85,217.35,35.47,214.95,48.69z M47.76,74.71c0-11.97,0.45-23.45-0.14-34.87
		c-0.48-9.3-6.17-15.19-15.14-17.62c-9.95-2.69-18.21,0.41-25.58,8.22c-0.28-2.89-0.49-4.95-0.71-7.18c-1.82,0-3.36,0-5.03,0
		c0,17.37,0,34.4,0,51.79c2-0.17,3.55-0.29,5.44-0.45c0-10.24,0.02-20.04-0.01-29.84c-0.02-7.13,2.9-12.55,9.26-15.89
		c12.51-6.59,25.89,1.14,26.19,15.24c0.21,10.11,0.04,20.22,0.04,30.6C44.22,74.71,45.8,74.71,47.76,74.71z M144.44,63.95
		c-1.06-1.73-1.79-2.79-2.38-3.93c-5.65-10.95-11.49-21.81-16.8-32.92c-2.03-4.24-4.62-5.17-9.23-3.73
		c9.29,17.71,18.51,35.31,28.25,53.89c9.67-18.54,18.82-36.09,28.02-53.73c-4.91-1.91-7.12-0.23-8.98,3.53
		C157.3,39.25,150.96,51.28,144.44,63.95z M324.4,23.09c0,17.58,0,34.6,0,51.95c1.96-0.13,3.53-0.24,5.5-0.37
		c0-11.15-0.14-21.93,0.05-32.7c0.14-8.09,5.17-13.81,12.66-14.91c1.6-0.24,3.23-0.29,4.88-0.43c0-1.87,0-3.43,0-5.15
		c-7.24-1.14-12.47,2.19-17.28,7.55c-0.33-2.67-0.53-4.25-0.74-5.95C327.66,23.09,326.2,23.09,324.4,23.09z M449.96,72.19
		c-0.01-0.75-0.02-1.49-0.02-2.24c-1.76-1.21-3.81-3.64-5.22-3.32c-1.78,0.41-3.96,2.96-4.19,4.81c-0.16,1.27,2.62,3.99,4.22,4.11
		C446.39,75.67,448.21,73.41,449.96,72.19z"/>
	<path d="M236,97c0.09-21.82,0.19-43.65,0.26-65.47c0-1.15-0.13-2.3-0.24-3.94c-2.48-0.21-4.9-0.42-8.06-0.69
		c0.1-6.22,5.71-2.68,8.13-5.05c0.05-1.2,0.11-2.82,0.2-4.45c0.52-9.87,9.61-17.74,19.41-16.48c1.28,0.16,2.31,2.19,4.04,3.94
		c-14.24,3.24-17.45,6.83-16.43,17.81c4.94,0,9.98,0,15.06,0c-0.21,2.74-0.21,2.74-15.2,5.17c-0.08,1.64-0.24,3.4-0.25,5.16
		c-0.02,16.33-0.24,32.67,0.11,48.99c0.13,6.14-0.39,11.47-6.04,15.02C236.66,97,236.33,97,236,97z"/>
	<path d="M360.02,74.71c-2.28,0-3.86,0-5.68,0c0-17.2,0-34.13,0-51.47c1.66-0.12,3.22-0.23,5.1-0.36c0.28,2.03,0.51,3.76,0.83,6.14
		c5.17-4.67,10.63-8.04,17.51-7.5c6.59,0.51,12.29,2.86,16.01,9.35c6.2-7.89,13.99-10.78,23.5-8.76c8.35,1.78,14.2,7.79,14.47,16.2
		c0.39,11.95,0.1,23.93,0.1,36.33c-1.76,0.13-3.33,0.25-5.72,0.44c0-2.09,0.01-3.84,0-5.58c-0.03-9.49,0.15-18.99-0.17-28.47
		c-0.3-8.8-6.24-14.27-14.77-14.25c-8.99,0.02-14.9,5.39-15.12,14.45c-0.27,10.97-0.06,21.94-0.06,33.33c-2.01,0-3.69,0-5.94,0
		c0-11.2,0.11-22.31-0.03-33.42c-0.13-10-8.16-16.14-17.93-13.98c-7.35,1.63-11.97,7.49-12.05,15.66
		C359.95,53.29,360.02,63.76,360.02,74.71z"/>
	<path d="M284.65,76.24c-17.27-0.13-28.33-11.21-28.1-28.15c0.22-16.19,11.63-27.06,28.32-26.98c16.77,0.08,27.98,11.32,27.88,27.94
		C312.65,65.25,301.16,76.36,284.65,76.24z M306.1,48.98c0.02-13.25-8.73-22.24-21.62-22.22C271.92,26.78,263,35.89,263,48.7
		c0,12.63,9.16,22.13,21.43,22.23C296.66,71.04,306.08,61.49,306.1,48.98z"/>
	<path d="M87.43,76.23c-17.09-0.14-28.24-11.05-28.18-27.59c0.06-16.51,11.48-27.62,28.3-27.53c16.76,0.08,28.22,11.52,27.95,27.89
		C115.22,65.39,103.91,76.36,87.43,76.23z M65.8,48.82c0.05,12.7,9.23,22.13,21.52,22.11c12.11-0.02,21.71-9.77,21.72-22.07
		c0.02-12.96-9.14-22.19-21.92-22.09C74.5,26.86,65.75,35.92,65.8,48.82z"/>
	<path d="M214.95,48.69c2.4-13.22-2.31-19.84-14.9-20.77c-6.4-0.47-12.87-0.08-19.72-0.08c-0.89-2.42-0.39-4.49,3.44-4.53
		c6.81-0.06,13.68-0.68,20.41,0.04c11.63,1.23,17.12,7.65,17.29,19.27c0.16,10.63,0.03,21.26,0.03,32.14c-2.1,0-3.7,0-5.63,0
		c-0.24-1.46-0.48-2.88-0.75-4.46c-0.55,0.13-1.06,0.11-1.39,0.35c-8.74,6.23-18.37,6.36-28.19,3.74
		c-7.75-2.07-12.2-7.44-12.33-13.9c-0.13-6.48,4.53-12.5,12.04-14.85C195.37,42.48,205.26,42.86,214.95,48.69z M197.15,72.38
		c4.96-1.92,10.23-3.13,14.56-5.84c5.3-3.31,5.05-10.06,0.29-14.05c-6.59-5.52-21.64-5.67-28.25-0.26
		c-5.36,4.38-5.48,11.48,0.38,15.19C187.78,69.71,192.31,70.59,197.15,72.38z"/>
	<path d="M47.76,74.71c-1.96,0-3.54,0-5.67,0c0-10.38,0.17-20.5-0.04-30.6c-0.3-14.1-13.68-21.83-26.19-15.24
		C9.5,32.22,6.58,37.64,6.6,44.76c0.03,9.8,0.01,19.59,0.01,29.84c-1.89,0.16-3.44,0.28-5.44,0.45c0-17.39,0-34.42,0-51.79
		c1.67,0,3.21,0,5.03,0c0.22,2.23,0.42,4.29,0.71,7.18c7.36-7.8,15.63-10.9,25.58-8.22c8.97,2.42,14.66,8.32,15.14,17.62
		C48.21,51.26,47.76,62.74,47.76,74.71z"/>
	<path d="M144.44,63.95c6.52-12.67,12.86-24.7,18.88-36.88c1.86-3.76,4.07-5.45,8.98-3.53c-9.2,17.63-18.35,35.18-28.02,53.73
		c-9.74-18.59-18.97-36.18-28.25-53.89c4.61-1.45,7.2-0.51,9.23,3.73c5.31,11.11,11.15,21.97,16.8,32.92
		C142.65,61.15,143.39,62.22,144.44,63.95z"/>
	<path d="M324.4,23.09c1.79,0,3.26,0,5.05,0c0.21,1.7,0.41,3.28,0.74,5.95c4.81-5.36,10.04-8.69,17.28-7.55c0,1.71,0,3.28,0,5.15
		c-1.65,0.14-3.28,0.19-4.88,0.43c-7.48,1.1-12.52,6.82-12.66,14.91c-0.18,10.77-0.05,21.54-0.05,32.7
		c-1.97,0.13-3.54,0.24-5.5,0.37C324.4,57.69,324.4,40.67,324.4,23.09z"/>
	<path d="M449.96,72.19c-1.75,1.22-3.56,3.48-5.21,3.36c-1.6-0.11-4.38-2.84-4.22-4.11c0.24-1.85,2.41-4.4,4.19-4.81
		c1.41-0.33,3.46,2.11,5.22,3.32C449.94,70.7,449.95,71.45,449.96,72.19z"/>
	<path class="st0" d="M306.1,48.98c-0.02,12.51-9.43,22.06-21.66,21.95c-12.27-0.1-21.43-9.61-21.43-22.23
		c0-12.81,8.92-21.92,21.48-21.94C297.36,26.74,306.12,35.73,306.1,48.98z"/>
	<path class="st0" d="M65.8,48.82c-0.05-12.9,8.7-21.96,21.32-22.06c12.78-0.1,21.94,9.13,21.92,22.09
		c-0.01,12.31-9.61,22.06-21.72,22.07C75.02,70.95,65.85,61.52,65.8,48.82z"/>
	<path class="st0" d="M197.15,72.38c-4.85-1.78-9.38-2.67-13.01-4.97c-5.86-3.71-5.74-10.8-0.38-15.19
		c6.6-5.4,21.66-5.26,28.25,0.26c4.76,3.99,5.01,10.74-0.29,14.05C207.38,69.25,202.12,70.46,197.15,72.38z"/>
</g>
<g>
	<g transform="matrix(1.63598 0 0 1.63598 112.676 141.439)">
		<path class="st0" d="M237.37-21.75c-1.53-1.85-4.22-2.91-7.39-2.91c-3.35,0-6.37,1.14-8.46,2.99l0.34-2.14l-0.91-0.27
			c-1.28-0.38-2.71-0.58-4.12-0.58c-2.43,0-4.75,0.75-6.62,1.99l0.54-1.78h-14.51l-0.17,0.57c-1.29-0.52-2.71-0.78-4.3-0.78
			c-2.99,0-6.22,1.16-7.9,3.39c-0.11-0.16-0.23-0.32-0.35-0.48c-1.53-1.85-4.22-2.91-7.39-2.91c-3.25,0-6.19,1.07-8.27,2.83
			l0.81-4.92l-0.92-0.27c-1.57-0.45-3.32-0.69-5.05-0.69c-6.36,0-12.14,4.04-13.17,9.2c-0.44,2.19,0.07,4.32,1.44,5.99
			c1.16,1.42,2.88,2.43,4.93,2.95h-6.3v8.06h32.08l0.05-0.1l0.01,0.1h3.86l0.52-0.85l-0.16,0.85h8.73l0.13-0.67
			c0.77,0.5,1.76,0.77,2.91,0.77c1.03,0,1.98-0.21,2.8-0.59l-0.09,0.5h12.24l0.02-0.11c0.57,0.13,1.16,0.2,1.73,0.2
			c0.35,0,0.7-0.03,1.06-0.09h4.67l0.35-0.74h0.31l0.1,0.74h14.4l0.72-3.77h-0.26l0.1-0.52h0.19l0.72-3.77h-0.4
			c0.32-0.29,0.56-0.67,0.64-1.1c0.1-0.51-0.04-1.03-0.36-1.42c-0.09-0.1-0.18-0.19-0.29-0.27c1.14-1.17,1.93-2.59,2.24-4.19
			C238.98-18.53,238.55-20.32,237.37-21.75L237.37-21.75z M229.04-5.58h-0.44l0.67-3.5c0.15-0.02,0.3-0.04,0.45-0.07L229.04-5.58z
			 M218.74-16.99c-0.05,0.23-0.08,0.47-0.1,0.69c-0.97,0.65-1.88,0.96-2.86,0.96c-0.66,0-1.23-0.22-1.53-0.58
			c-0.17-0.2-0.23-0.43-0.17-0.7c0.17-0.9,1.39-1.69,2.61-1.69c0.76,0,1.47,0.27,2.17,0.82C218.82-17.31,218.77-17.15,218.74-16.99
			L218.74-16.99z M219.72-9.59l-0.47,0.78l-0.39-0.22c-0.26-0.15-0.54-0.26-0.83-0.36c0.21-0.05,0.41-0.11,0.58-0.17l0.55-0.2
			l0.54-2.38c0.07,0.1,0.14,0.21,0.22,0.31c0.82,0.99,2,1.75,3.43,2.24L219.72-9.59z M224.53-9.26l-0.19,0.99l-0.26-1.1
			C224.23-9.33,224.38-9.29,224.53-9.26L224.53-9.26z M229.15-18.19c0.59,0,1.05,0.16,1.28,0.44c0.22,0.26,0.21,0.6,0.16,0.83
			c-0.19,0.97-1.19,1.65-2.43,1.65c-0.6,0-1.08-0.16-1.31-0.44c-0.16-0.19-0.21-0.46-0.14-0.8
			C226.88-17.34,227.77-18.19,229.15-18.19z M201.83-8.87c-0.17-0.12-0.35-0.22-0.55-0.31h0.61L201.83-8.87z M198.49-5.59
			c-0.08,0.07-0.21,0.12-0.35,0.13C198.21-5.53,198.33-5.58,198.49-5.59z M197.54-18.1l-0.72,2.37c-0.05-0.63-0.24-1.21-0.59-1.72
			c-0.14-0.21-0.31-0.4-0.5-0.58L197.54-18.1z M176.75-16.92c-0.19,0.97-1.19,1.65-2.43,1.65c-0.6,0-1.08-0.16-1.31-0.44
			c-0.16-0.19-0.21-0.46-0.14-0.8c0.16-0.84,1.05-1.68,2.43-1.68c0.59,0,1.05,0.16,1.28,0.44C176.81-17.49,176.8-17.15,176.75-16.92
			L176.75-16.92z M185.08-9.2l-0.02,0.05V-9.2C185.06-9.21,185.07-9.21,185.08-9.2L185.08-9.2z M195.8-12.36l-0.84,2.77h-3.23
			C193.38-10.14,194.86-11.05,195.8-12.36z M196.15-9.17h0.18c-0.07,0.03-0.13,0.06-0.2,0.09L196.15-9.17z M161.39-16.45
			c-0.92,0-1.72-0.3-2.14-0.81c-0.24-0.29-0.32-0.62-0.25-0.99c0.24-1.21,1.85-2.23,3.51-2.23c1.12,0,2.16,0.42,3.18,1.28
			c-0.27,0.5-0.48,1.03-0.64,1.58C163.82-16.82,162.64-16.45,161.39-16.45z M180.39-10.73l1.05,0.47c0.58,0.26,1.22,0.48,1.9,0.67
			h-1.95l-0.21,0.42l-0.03-0.42h-3.38C178.72-9.88,179.6-10.27,180.39-10.73L180.39-10.73z M205.98-5.58l0.76-4.01h-3.7l2.59-8.54
			l0.79,0.03c-0.15,0.39-0.27,0.79-0.35,1.2c-0.37,1.9,0.08,3.74,1.26,5.18c0.78,0.94,1.85,1.66,3.1,2.13h-3.26l-0.76,4.01
			L205.98-5.58z M164.81-9.89l0.56-0.2l0.49-2.07c0.08,0.11,0.15,0.22,0.24,0.32c0.82,0.99,2,1.75,3.43,2.24h-5.89
			C164.06-9.67,164.47-9.77,164.81-9.89z M231.62-9.59c0.48-0.15,0.94-0.32,1.38-0.51c0.06,0.16,0.14,0.31,0.25,0.44
			c0.02,0.03,0.05,0.05,0.08,0.07H231.62z"/>
		<g transform="translate(-208.5 -290.5)">
			<path class="st1" d="M404.27,271.39l3.25-0.12l-2.73,8.98h5.83l2.72-8.98l3.18,0.12l1.29-4.26h-12.25L404.27,271.39z
				 M392.2,273.72c-0.82,4.21-5.28,6.74-10.17,6.74s-8.38-2.52-7.57-6.74c0.8-4.13,5.32-6.81,10.19-6.81
				C389.51,266.91,392.99,269.59,392.2,273.72L392.2,273.72z M380.31,273.79c-0.29,1.5,0.75,2.52,2.51,2.52
				c1.77,0,3.2-1.03,3.49-2.52c0.27-1.39-0.65-2.56-2.5-2.56S380.58,272.4,380.31,273.79L380.31,273.79z"/>
			<path class="st1" d="M390.39,279.25c1.66,0.75,3.92,1.2,5.94,1.2c3.47,0,7.26-1.55,7.86-4.68c0.43-2.23-1.15-3.31-3.53-3.76
				l-1.27-0.24c-0.43-0.09-1.14-0.16-1.05-0.64c0.1-0.54,0.88-0.7,1.39-0.7c1.25,0,2.3,0.44,3.19,0.99l2.22-3.36
				c-1.42-0.78-3.03-1.15-4.86-1.15c-3.49,0-7.29,1.74-7.89,4.86c-0.4,2.05,1.3,3.15,3.52,3.48l1.14,0.17
				c0.52,0.09,1.27,0.14,1.16,0.73s-1.07,0.78-1.64,0.78c-1.34,0-2.49-0.54-3.4-1.2l-0.26-0.19L390.39,279.25z M429.15,267.45
				c-1.17-0.35-2.49-0.54-3.81-0.54c-4.7,0-8.97,3.06-9.71,6.89c-0.72,3.74,2.29,6.65,6.86,6.65c1.04,0,3.24-0.16,4.25-0.52
				l1.12-4.91c-1.08,0.75-2.24,1.22-3.58,1.22c-1.74,0-3.04-1.11-2.76-2.56c0.28-1.43,1.92-2.56,3.66-2.56
				c1.32,0,2.37,0.61,3.17,1.32L429.15,267.45z M438.49,266.91c-4.87,0-9.39,2.68-10.19,6.81c-0.81,4.21,2.67,6.74,7.57,6.74
				c4.89,0,9.36-2.52,10.17-6.74C446.84,269.59,443.36,266.91,438.49,266.91z M437.65,271.23c1.85,0,2.77,1.17,2.5,2.56
				c-0.29,1.5-1.72,2.52-3.49,2.52s-2.8-1.03-2.51-2.52C434.43,272.4,435.8,271.23,437.65,271.23L437.65,271.23z M375.96,264.51
				c-1.45-0.42-3.11-0.65-4.75-0.65c-5.86,0-11.19,3.7-12.12,8.33c-0.9,4.52,2.85,8.04,8.56,8.04c1.3,0,4.04-0.19,5.3-0.63l1.4-5.93
				c-1.35,0.9-2.79,1.47-4.46,1.47c-2.18,0-3.79-1.35-3.44-3.09c0.34-1.72,2.4-3.09,4.57-3.09c1.64,0,2.96,0.74,3.95,1.6
				L375.96,264.51z"/>
			<path class="st1" d="M442.45,279.61c0.09-0.46,0.6-0.83,1.15-0.83s0.93,0.37,0.84,0.83s-0.6,0.83-1.15,0.83
				C442.74,280.44,442.37,280.07,442.45,279.61z M444.19,279.61c0.07-0.37-0.19-0.61-0.62-0.61s-0.78,0.24-0.85,0.61
				s0.19,0.61,0.62,0.61C443.76,280.22,444.12,279.98,444.19,279.61L444.19,279.61z M443.83,280.04h-0.26l-0.16-0.37h-0.17
				l-0.07,0.37h-0.22l0.16-0.87h0.51c0.22,0,0.34,0.06,0.3,0.27c-0.03,0.15-0.15,0.23-0.28,0.24L443.83,280.04z M443.51,279.51
				c0.11,0,0.2,0,0.22-0.09c0.01-0.08-0.08-0.08-0.19-0.08h-0.24l-0.03,0.17L443.51,279.51L443.51,279.51z"/>
		</g>
		<path class="st2" d="M194.44-5.75c0.46-1.74,2.38-2.85,4.45-2.85c2.15,0,3.69,1.2,3.33,3.06c-0.36,1.89-2.33,3.03-4.49,3.03
			c-2.08,0-3.58-1.05-3.37-2.81l-0.52,2.72h-2.48l0.39-2.05h-1.58l-0.39,2.05h-2.48l1.04-5.46L185-2.61h-2.24l-0.2-3.21h-0.08
			c-0.09,0.31-0.16,0.6-0.3,0.89l-1.15,2.32h-2.19l-1.36-5.9h2.67l0.22,3.52h0.06c0.12-0.36,0.24-0.74,0.42-1.09l1.21-2.43h1.97
			l0.3,3.52h0.06c0.1-0.34,0.22-0.7,0.38-1.04l1.18-2.48h4.97l-0.38,1.99h1.58l0.38-1.99h2.48L194.44-5.75z M212.85-4.72l0.11,0.09
			c0.4,0.3,0.91,0.54,1.5,0.54c0.25,0,0.67-0.09,0.72-0.35c0.05-0.27-0.28-0.29-0.51-0.33l-0.5-0.08c-0.98-0.15-1.73-0.64-1.55-1.56
			c0.27-1.4,1.95-2.18,3.49-2.18c0.81,0,1.52,0.16,2.15,0.52l-0.98,1.51c-0.39-0.25-0.85-0.45-1.41-0.45
			c-0.23,0-0.57,0.07-0.61,0.31c-0.04,0.22,0.27,0.25,0.46,0.29l0.56,0.11c1.05,0.2,1.75,0.69,1.56,1.69
			c-0.02,0.12-0.06,0.23-0.1,0.34l2.57-4.23h2.84l1.29,5.4l1.03-5.4h2.57l-0.76,4.01h2.16l-0.36,1.89h-4.52l0,0h-2.72l-0.09-0.74
			h-1.94l-0.35,0.74h-2.72l0.64-1.05c-0.66,0.76-1.87,1.14-3,1.14c-0.87,0-1.84-0.19-2.57-0.52l-0.08,0.42h-4.84l1.12-5.9h4.76
			l-0.31,1.61h-2.17l-0.11,0.56h1.98l-0.29,1.53h-1.98l-0.11,0.58h2.24l-0.2,1.04L212.85-4.72z M177.91-4.11l0.34,1.5h0.02v0.01H151
			v-1.51H177.91z M234.39-2.61h-4.84l1.12-5.9h4.76l-0.31,1.61h-2.17l-0.11,0.56h1.98l-0.29,1.53h-1.98l-0.11,0.58h2.24L234.39-2.61
			z M206.4-2.61h-4.73l1.12-5.9h2.57L204.6-4.5h2.16L206.4-2.61z M196.98-5.52c-0.13,0.67,0.33,1.13,1.11,1.13s1.41-0.46,1.54-1.13
			c0.12-0.63-0.29-1.15-1.11-1.15C197.71-6.66,197.1-6.14,196.98-5.52z M177.42-6.26l0.35,1.51H151v-1.51H177.42z M221.56-6.55
			h-0.09l-0.81,1.8h1.03l-0.1-1.04C221.56-6.04,221.56-6.3,221.56-6.55z M176.9-8.5l0.24,1.05l0.12,0.55H151v-1.6
			C151-8.5,176.9-8.5,176.9-8.5z"/>
	</g>
</g>
<text transform="matrix(1 0 0 1 266.585 118.6756)" class="st3 st4">Only at</text>
</svg>
