<?xml version="1.0" encoding="utf-8"?>
<!-- Generator: Adobe Illustrator 27.2.0, SVG Export Plug-In . SVG Version: 6.00 Build 0)  -->
<svg version="1.1" id="Layer_1" xmlns="http://www.w3.org/2000/svg" xmlns:xlink="http://www.w3.org/1999/xlink" x="0px" y="0px"
	 viewBox="0 0 178 20" style="enable-background:new 0 0 178 20;" xml:space="preserve">
<style type="text/css">
	.st0{fill-rule:evenodd;clip-rule:evenodd;fill:#2B2823;}
</style>
<path class="st0" d="M74.7,17.1c-3.5-1.9-6.1-4.6-7.5-6.7c-1.3,1.1-2,2.6-1.7,4c0.2,1.2,0.8,2.1,1.8,2.7c1.3,0.9,3.2,1.1,5.2,0.8
	C73.2,17.7,74,17.4,74.7,17.1z M66.1,18.7c-1.4-0.9-2.3-2.3-2.7-4c-0.4-2.2,0.6-4.6,2.7-6.1c-1.6-3.5-0.4-5.7,0.9-7
	C68.1,0.6,69.5,0,71,0h0c1.5,0,2.9,0.6,4,1.6c1,1,1.7,2.5,1.7,3.9v1h-2c0,0,0-0.3,0-0.9v0c0-0.9-0.4-1.9-1.1-2.5
	c-0.7-0.7-1.6-1-2.6-1c-1,0-1.9,0.4-2.5,1c-1.4,1.4-1.4,3.3,0,5.7c1.2,2.1,4,5.3,8,7.1c1.2-1.1,1.9-2,2.4-3h-1.4v-1.9h5.1v1.9h-1.4
	c-0.6,1.4-1.6,2.7-2.6,3.8c0.9,0.2,1.8,0.4,2.7,0.5c0.7,0,1,0,1,0v2c0,0-0.3,0-1,0l0,0c-1.6-0.1-3.1-0.5-4.4-1
	c-1.1,0.8-2.4,1.4-4,1.7c-0.7,0.1-1.4,0.2-2.1,0.2C69,20,67.4,19.6,66.1,18.7z M107.3,19.7V0.2h10.6v1.9h-8.6V9l7.6,0v1.9h-7.6v6.8
	h8.6v2L107.3,19.7L107.3,19.7z M153,0.2v19.5h10.6v-2h-8.6V0.2H153z M33.9,19.7V0.2h10.6v1.9l-8.5,0V9h7.5v1.9l-7.5,0v8.8H33.9z
	 M0,0.2v1.9h5.5v17.5h2V2.2h5.5V0.2H0z M30.7,12.9c0,3.9-3.3,7.1-7.3,7.1s-7.3-3.2-7.3-7.1V0.2h2v12.9l0,0c0.1,2.7,2.5,4.9,5.3,4.9
	c2.9,0,5.2-2.2,5.3-4.9l0,0V0.2h2C30.7,0.2,30.7,12.9,30.7,12.9z M101.6,0.2v13.1L90.1,0.2h-2.6l1,1.1v18.4h2V3.7l11.1,12.7v3.4h2
	V0.2H101.6z M47.6,2.2V0.2h13.1v1.9h-5.5v17.5h-2V2.2H47.6z M121.4,0.2v19.5H132v-2h-8.6v-6.8h7.6V9l-7.6,0V2.2h8.6V0.2H121.4z
	 M167.4,19.7V0.2H178v1.9h-8.6V9l7.6,0v1.9h-7.6v6.8h8.6v2L167.4,19.7L167.4,19.7z M139.6,0.2h-3.8v19.5h3.8
	c5.6,0,10.1-4.4,10.1-9.8C149.7,4.6,145.2,0.2,139.6,0.2z M137.8,17.8h1.8c4.4,0,8.1-3.5,8.1-7.8s-3.6-7.8-8.1-7.8h-1.8V17.8z"/>
</svg>
