<?xml version="1.0" encoding="utf-8"?>
<!-- Generator: Adobe Illustrator 27.2.0, SVG Export Plug-In . SVG Version: 6.00 Build 0)  -->
<svg version="1.1" id="_x3C_Layer_x3E_" xmlns="http://www.w3.org/2000/svg" xmlns:xlink="http://www.w3.org/1999/xlink" x="0px"
	 y="0px" viewBox="0 0 480.77 96.41" style="enable-background:new 0 0 480.77 96.41;" xml:space="preserve">
<style type="text/css">
	.st0{fill:#1A2A59;}
</style>
<path class="st0" d="M154.6,67.51h10.38c8.7,0,14.61-5.73,14.61-13.94c0-8.2-5.9-13.98-14.61-13.98H154.6V67.51z M159.5,63.2V43.91
	h5.48c6.24,0,9.58,4.27,9.58,9.67c0,5.27-3.51,9.63-9.58,9.63H159.5z M204.45,67.51h5.65l-6.82-10.97c3.35-0.54,6.61-3.22,6.61-8.2
	c0-5.15-3.6-8.75-9.12-8.75H188.5v27.92h4.9V57.09h4.86L204.45,67.51z M204.86,48.34c0,2.68-2.01,4.44-4.77,4.44h-6.7v-8.87h6.7
	C202.85,43.91,204.86,45.67,204.86,48.34 M218.97,67.51h19.13V63.2h-14.23v-7.74h13.94v-4.31h-13.94v-7.24h14.23V39.6h-19.13V67.51z
	 M267.06,67.51h5.36L261.45,39.6h-6.11l-10.97,27.92h5.36l2.05-5.36h13.23L267.06,67.51z M258.4,43.74l5.23,14.1h-10.46L258.4,43.74
	z M303.76,67.51h4.9V39.6h-6.91l-7.62,18.79l-7.58-18.79h-6.9v27.92h4.9V46.38l8.54,21.14h2.09l8.58-21.14V67.51z M331.97,68.01
	c5.86,0,9.29-2.93,11.43-6.28l-4.19-2.13c-1.34,2.34-4.02,4.06-7.24,4.06c-5.32,0-9.42-4.23-9.42-10.09c0-5.86,4.1-10.09,9.42-10.09
	c3.22,0,5.9,1.76,7.24,4.06l4.19-2.13c-2.09-3.35-5.57-6.28-11.43-6.28c-8.04,0-14.44,5.86-14.44,14.44
	C317.53,62.16,323.93,68.01,331.97,68.01 M351.5,67.51h17.2V63.2h-12.3V39.6h-4.9V67.51z M374.78,53.58
	c0,8.33,5.9,14.44,14.27,14.44c8.37,0,14.27-6.11,14.27-14.44c0-8.33-5.9-14.44-14.27-14.44C380.68,39.14,374.78,45.25,374.78,53.58
	 M398.3,53.58c0,5.73-3.64,10.09-9.25,10.09c-5.65,0-9.25-4.35-9.25-10.09c0-5.78,3.6-10.09,9.25-10.09
	C394.66,43.49,398.3,47.8,398.3,53.58 M412.22,56.51c0,6.86,3.98,11.51,12.1,11.51c8.08,0,12.05-4.6,12.05-11.55V39.6h-4.94v16.74
	c0,4.44-2.47,7.32-7.11,7.32c-4.69,0-7.16-2.89-7.16-7.32V39.6h-4.94V56.51z M446.49,67.51h10.38c8.71,0,14.61-5.73,14.61-13.94
	c0-8.2-5.9-13.98-14.61-13.98h-10.38V67.51z M451.39,63.2V43.91h5.48c6.24,0,9.58,4.27,9.58,9.67c0,5.27-3.52,9.63-9.58,9.63H451.39
	z"/>
<g>
	<path class="st0" d="M66.67,38.62c11.69,0,21.88,6.75,27.24,16.75c0.9-2.92,1.39-6.03,1.39-9.26c0-16.62-12.82-30.1-28.63-30.1
		c-15.81,0-28.63,13.48-28.63,30.1c0,3.23,0.49,6.34,1.39,9.26C44.79,45.37,54.98,38.62,66.67,38.62"/>
	<path class="st0" d="M17.63,78.79c1.53,0.78,3.14,1.31,4.78,1.62c-3.19-4.75-3.45-10.83-0.1-15.95c3.35-5.12,9.47-7.96,15.73-7.9
		c-1.12-1.1-2.45-2.06-3.98-2.84c-7.86-4-17.91-1.62-22.44,5.3C7.08,65.95,9.77,74.8,17.63,78.79"/>
	<path class="st0" d="M120.51,67.22c4.61,7.68,4.24,16.81-0.14,23.93c2.25-0.46,4.47-1.26,6.57-2.43
		c10.81-5.99,14.51-19.27,8.27-29.65c-6.24-10.38-20.05-13.94-30.86-7.95c-2.1,1.16-3.93,2.61-5.47,4.25
		C107.48,55.28,115.89,59.54,120.51,67.22"/>
</g>
</svg>
