<?xml version="1.0" encoding="utf-8"?>
<!-- Generator: Adobe Illustrator 27.2.0, SVG Export Plug-In . SVG Version: 6.00 Build 0)  -->
<svg version="1.1" id="layer" xmlns="http://www.w3.org/2000/svg" xmlns:xlink="http://www.w3.org/1999/xlink" x="0px" y="0px"
	 viewBox="0 0 590 350.55" style="enable-background:new 0 0 590 350.55;" xml:space="preserve">
<style type="text/css">
	.st0{fill:#002E66;}
	.st1{fill:#333366;}
	.st2{fill:none;stroke:#002E66;stroke-width:8;stroke-miterlimit:10;}
</style>
<polygon class="st0" points="74.9,226.85 74.9,278.55 15.6,278.55 15.6,226.85 0,226.85 0,350.55 15.6,350.55 15.6,293.55 
	74.9,293.55 74.9,350.55 90.4,350.55 90.4,226.85 "/>
<polygon class="st0" points="156.72,226.85 156.72,350.55 239.52,350.55 239.52,336.25 172.22,336.25 172.22,293.55 231.23,293.55 
	231.23,278.95 172.22,278.95 172.22,241.25 239.52,241.25 239.52,226.85 "/>
<polygon class="st0" points="295.85,226.85 295.85,350.55 370.85,350.55 370.85,336.15 311.35,336.15 311.35,226.85 "/>
<rect x="424.18" y="226.85" class="st0" width="15.9" height="123.7"/>
<polygon class="st1" points="573,226.85 542.5,276.95 511.4,226.85 494.1,226.85 532.4,288.15 493.4,350.55 510.3,350.55 
	541.3,299.85 572.8,350.55 590,350.55 551,288.15 589.5,226.85 "/>
<line class="st2" x1="206.51" y1="0.66" x2="206.51" y2="195.58"/>
<line class="st2" x1="384.72" y1="0" x2="384.72" y2="194.92"/>
<line class="st2" x1="209.25" y1="67.98" x2="381.52" y2="67.98"/>
<line class="st2" x1="208.46" y1="97.27" x2="380.73" y2="97.27"/>
<line class="st2" x1="208.43" y1="127.39" x2="380.7" y2="127.39"/>
</svg>
