<?xml version="1.0" encoding="utf-8"?>
<!-- Generator: Adobe Illustrator 27.2.0, SVG Export Plug-In . SVG Version: 6.00 Build 0)  -->
<svg version="1.1" id="layer" xmlns="http://www.w3.org/2000/svg" xmlns:xlink="http://www.w3.org/1999/xlink" x="0px" y="0px"
	 viewBox="0 0 652 652" style="enable-background:new 0 0 652 652;" xml:space="preserve">
<style type="text/css">
	.st0{fill:#002E66;}
	.st1{fill:#333366;}
	.st2{fill:#ABABAB;stroke:#002E66;stroke-width:8;stroke-miterlimit:10;}
	.st3{fill:none;stroke:#002E66;stroke-width:8;stroke-miterlimit:10;}
</style>
<polygon class="st0" points="105.5,375.3 105.5,427 46.2,427 46.2,375.3 30.6,375.3 30.6,499 46.2,499 46.2,442 105.5,442 
	105.5,499 121,499 121,375.3 "/>
<polygon class="st0" points="187.32,375.3 187.32,499 270.12,499 270.12,484.7 202.82,484.7 202.82,442 261.83,442 261.83,427.4 
	202.82,427.4 202.82,389.7 270.12,389.7 270.12,375.3 "/>
<polygon class="st0" points="326.45,375.3 326.45,499 401.45,499 401.45,484.6 341.95,484.6 341.95,375.3 "/>
<rect x="454.78" y="375.3" class="st0" width="15.9" height="123.7"/>
<polygon class="st1" points="603.6,375.3 573.1,425.4 542,375.3 524.7,375.3 563,436.6 524,499 540.9,499 571.9,448.3 603.4,499 
	620.6,499 581.6,436.6 620.1,375.3 "/>
<line class="st2" x1="237.11" y1="149.11" x2="237.11" y2="344.03"/>
<line class="st2" x1="415.32" y1="148.45" x2="415.32" y2="343.37"/>
<line class="st3" x1="239.85" y1="216.43" x2="412.12" y2="216.43"/>
<line class="st3" x1="239.06" y1="245.72" x2="411.33" y2="245.72"/>
<line class="st3" x1="239.03" y1="275.84" x2="411.3" y2="275.84"/>
</svg>
