<?xml version="1.0" encoding="utf-8"?>
<!-- Generator: Adobe Illustrator 27.2.0, SVG Export Plug-In . SVG Version: 6.00 Build 0)  -->
<svg version="1.1" id="Layer_1" xmlns="http://www.w3.org/2000/svg" xmlns:xlink="http://www.w3.org/1999/xlink" x="0px" y="0px"
	 viewBox="0 0 178.75 76.81" style="enable-background:new 0 0 178.75 76.81;" xml:space="preserve">
<style type="text/css">
	.st0{fill:#231F20;}
</style>
<g id="Logo_Layla" transform="translate(-92.115 -75.4)">
	<g id="Group_34">
		<path id="Path_15" class="st0" d="M211.4,125.24c0.05,0.1,0.18,0.14,0.28,0.09c0.04-0.02,0.08-0.06,0.09-0.1
			c0.47-1.03,0.92-2.01,1.37-2.99c2.67-5.85,5.35-11.69,8.02-17.54c0.25-0.75,0.98-1.23,1.77-1.15c0.7,0,1.65,0.02,2.43,0.02
			c0.54-0.02,0.99,0.4,1.01,0.94c0.01,0.18-0.04,0.36-0.13,0.52c-0.47,1.1-0.98,2.17-1.48,3.25c-6.58,14.26-13.16,28.52-19.74,42.78
			c-0.27,0.75-1.02,1.23-1.82,1.15c-0.91,0-1.21,0-1.85-0.01c-1.36-0.02-1.84-0.63-1.3-1.81c1.2-2.63,2.42-5.24,3.64-7.87
			c1.68-3.62,3.36-7.23,5.04-10.85c0.13-0.24,0.13-0.53-0.01-0.77c-1.79-3.61-3.57-7.23-5.35-10.84c-2.42-4.91-4.85-9.82-7.27-14.73
			c-0.08-0.15-0.14-0.32-0.19-0.48c-0.19-0.67,0.1-1.21,0.79-1.24c1.23,0,2.34,0,3.6,0c0.51,0,0.8,0.4,1.01,0.85
			c0.66,1.38,1.33,2.76,2,4.13C205.74,113.6,210.4,123.2,211.4,125.24"/>
		<path id="Path_16" class="st0" d="M266.35,114.6c0.09-1.58-0.05-3.16-0.4-4.71c-0.32-1.7-1.87-2.89-3.6-2.77
			c-2.93-0.09-5.84,0.39-8.59,1.42c-0.15,0.06-0.3,0.11-0.45,0.16c-0.37,0.16-0.79-0.01-0.95-0.38c-0.01-0.02-0.01-0.03-0.02-0.05
			c-0.29-0.75-0.54-1.52-0.75-2.3c-0.16-0.49,0.11-1.01,0.6-1.16c0,0,0.01,0,0.01,0c0.99-0.43,2.01-0.79,3.05-1.08
			c2.43-0.62,4.93-0.91,7.43-0.84c1.23,0.02,2.45,0.24,3.61,0.64c1.74,0.63,3.09,2.05,3.61,3.83c0.64,1.95,0.96,4,0.94,6.06
			c0.04,5.44,0.02,10.88,0.03,16.32c0.13,0.76-0.38,1.49-1.15,1.61c-0.15,0.03-0.31,0.03-0.47,0c-0.29,0-0.58-0.02-0.87,0.01
			c-0.57,0.1-1.12-0.27-1.25-0.83c-0.22-0.67-0.43-1.35-0.65-2.05c-0.42,0.35-0.8,0.7-1.2,1.02c-2.18,1.75-4.91,2.65-7.7,2.55
			c-4.14-0.03-7.62-3.13-8.11-7.25c-0.27-1.63-0.16-3.31,0.35-4.88c0.81-2.33,2.58-4.2,4.86-5.14c2.05-0.85,4.28-1.21,6.49-1.04
			c1.53,0.04,3.06,0.28,4.53,0.71C265.9,114.5,266.1,114.54,266.35,114.6 M266.3,121.26c0-0.72-0.04-1.45,0.01-2.17
			c0.07-0.41-0.2-0.8-0.61-0.88c-2.52-0.96-5.27-1.12-7.89-0.45c-2.51,0.5-4.24,2.8-4.02,5.35c-0.07,2.47,1.82,4.55,4.28,4.71
			c2.92,0.2,5.77-0.97,7.71-3.17c0.39-0.38,0.58-0.91,0.53-1.45C266.26,122.57,266.3,121.91,266.3,121.26"/>
		<path id="Path_17" class="st0" d="M238.57,107.04V84.42c0-1.44-0.62-1.68-1.37-1.69c-0.68-0.01-1.36-0.04-2.04,0.01
			c-0.84,0-1.4,0.41-1.4,1.74l-0.04,37.6v2.97c0,5.95,1.91,6.41,7.11,6.41h1.4c0.48,0,0.87-0.39,0.87-0.87v-2.96
			c0-0.48-0.39-0.87-0.87-0.86l0,0h-1.22c-1.74,0-2.43-0.35-2.43-2.43v-2.26L238.57,107.04z"/>
		<path id="Path_18" class="st0" d="M184.78,114.6c0.09-1.58-0.05-3.16-0.4-4.71c-0.32-1.7-1.87-2.9-3.6-2.77
			c-2.93-0.09-5.85,0.39-8.59,1.42c-0.15,0.06-0.29,0.11-0.45,0.16c-0.36,0.16-0.79-0.01-0.95-0.38c-0.01-0.02-0.01-0.03-0.02-0.05
			c-0.29-0.75-0.54-1.52-0.75-2.3c-0.16-0.48,0.1-1,0.59-1.16c0,0,0.01,0,0.01,0c0.99-0.43,2.01-0.79,3.06-1.08
			c2.43-0.62,4.92-0.91,7.43-0.84c1.23,0.02,2.45,0.24,3.62,0.64c1.74,0.63,3.09,2.05,3.61,3.83c0.64,1.95,0.96,4,0.94,6.06
			c0.04,5.44,0.02,10.88,0.02,16.32c0,1.11-0.51,1.61-1.61,1.62c-0.29,0-0.58-0.02-0.87,0.01c-0.57,0.1-1.12-0.27-1.25-0.83
			c-0.22-0.67-0.43-1.35-0.65-2.05c-0.42,0.35-0.8,0.7-1.2,1.02c-2.18,1.74-4.91,2.65-7.7,2.55c-4.14-0.03-7.62-3.13-8.11-7.25
			c-0.27-1.63-0.16-3.31,0.35-4.88c0.81-2.33,2.58-4.21,4.87-5.14c2.05-0.85,4.27-1.21,6.49-1.04c1.53,0.04,3.06,0.28,4.53,0.71
			C184.34,114.5,184.53,114.54,184.78,114.6 M184.73,121.26c0-0.72-0.04-1.45,0.01-2.17c0.07-0.41-0.2-0.8-0.61-0.88
			c-2.52-0.96-5.27-1.12-7.88-0.45c-2.51,0.5-4.24,2.8-4.03,5.35c-0.07,2.47,1.82,4.55,4.28,4.71c2.92,0.2,5.77-0.97,7.71-3.17
			c0.39-0.38,0.58-0.91,0.53-1.45C184.69,122.57,184.73,121.91,184.73,121.26"/>
		<path id="Path_19" class="st0" d="M157.01,107.04c0-7.54,0.01-22.88,0-23.01c-0.04-0.73-0.64-1.3-1.37-1.3
			c-0.68-0.01-1.36-0.04-2.04,0.01c-1.04,0-1.4,0.44-1.4,1.42l-0.04,40.88c0,5.95,1.91,6.41,7.11,6.41h1.4
			c0.48,0,0.87-0.39,0.87-0.87v-2.95c0-0.48-0.39-0.87-0.87-0.86h-1.22c-1.74,0-2.43-0.35-2.43-2.43L157.01,107.04z"/>
		<path id="Path_20" class="st0" d="M138.22,101.39v-12.1c0-0.56-0.28-1.09-0.75-1.4l-21.7-12.32c-0.41-0.23-0.9-0.23-1.31,0
			L92.82,87.89c-0.45,0.32-0.71,0.85-0.7,1.4v12.1c-0.01,0.47,0.23,0.91,0.63,1.14l7.12,4.05l-7.05,4.03
			c-0.46,0.31-0.73,0.84-0.7,1.39v12.1c-0.01,0.47,0.23,0.91,0.63,1.14l21.72,12.34c0.4,0.26,0.9,0.26,1.3,0l21.76-12.35
			c0.42-0.23,0.69-0.67,0.7-1.14V112c0.01-0.56-0.27-1.09-0.75-1.39l-7.11-4.03l7.16-4.05C137.95,102.3,138.22,101.86,138.22,101.39
			 M115.1,78.24l18.98,10.78L115.1,99.39L96.12,89.02L115.1,78.24z M135.39,123.33l-20.35,11.6l-20.35-11.6v-9.39l19.78,10.82
			c0.36,0.24,0.83,0.24,1.19,0l19.73-10.82V123.33z M134.08,111.74l-18.98,10.38l-18.98-10.38l6.4-3.63l11.93,6.78
			c0.41,0.19,0.89,0.19,1.3,0l11.93-6.78L134.08,111.74z M135.39,100.62l-20.35,11.6l-20.35-11.6v-9.39l19.78,10.82
			c0.38,0.23,0.87,0.22,1.24-0.03l19.68-10.79V100.62z"/>
	</g>
</g>
</svg>
