<?xml version="1.0" encoding="utf-8"?>
<!-- Generator: Adobe Illustrator 27.2.0, SVG Export Plug-In . SVG Version: 6.00 Build 0)  -->
<svg version="1.1" id="Layer_1" xmlns="http://www.w3.org/2000/svg" xmlns:xlink="http://www.w3.org/1999/xlink" x="0px" y="0px"
	 viewBox="0 0 90 24.35" style="enable-background:new 0 0 90 24.35;" xml:space="preserve">
<style type="text/css">
	.st0{fill:#0E3739;}
</style>
<g id="_x35_.-Logo_x2F_1---Leesa">
	<path id="Shape" class="st0" d="M4.28,21.81h8.87v2.15H0V1.45l2.13-1.03L2.99,0h1.29V21.81z M31.27,17.36l1.33,0.54
		c-0.81,2.8-3.27,4.97-5.98,5.94c-3.14,1.14-6.85,0.26-9.27-1.91c-1.68-1.47-2.65-3.59-2.67-5.82c-0.05-3.74,1.89-7.31,5.38-8.74
		c2.05-0.89,4.97-0.95,7.08-0.12c2.85,1.05,5.03,3.68,4.95,6.75H18.48c-0.03,3.7,2.29,7.54,6.27,7.51c2.6,0,5.56-1.49,6.47-3.99
		C31.22,17.52,30.8,18.62,31.27,17.36z M22.68,8.21c-2.21,0-3.96,2-4.17,4.13l8.72,0.01C27.2,9.97,25,8.16,22.68,8.21 M68.13,15.83
		c-2.09-1.66-5.04-2.19-7.31-3.5c-3.07-1.84-1.27-4.32,1.76-4.24c2.15,0,3.79,1.26,4.99,3.14l1.59-1.3
		c-1.86-2.26-3.64-3.32-6.55-3.25c-2.93-0.07-6.36,1.58-6.38,4.79c0.06,4.4,5.36,5.01,8.28,6.88c1.47,0.88,2.11,2.66,0.56,3.82
		c-1.41,1.03-3.55,0.91-5.01,0.01c-1.01-0.62-1.77-1.5-2.56-2.51l-1.72,1.43c1.38,1.71,3.19,2.85,5.29,3.14
		c3.08,0.38,6.88-0.11,8.33-3.03C70.3,19.26,69.85,17.15,68.13,15.83 M90,23.98l-4.4-0.01c-0.87-0.4-1.67-1.16-1.77-2.15
		c-1.26,0.93-2.44,1.87-4.02,2.27c-2.35,0.64-5.51,0.16-6.55-2.35c-0.82-1.88-0.14-4.06,1.45-5.31c2.52-2.02,6-2.75,9.1-3.5
		c0-1.37,0.08-2.98-0.7-4.02c-0.77-0.98-2.47-1.01-3.56-0.57c-1.29,0.53-2.12,1.81-2.28,3.18h-3.62c0.41-3.54,4.52-4.86,7.66-4.85
		c2.47,0.03,5.17,0.38,6.13,2.7c0.22,0.6,0.33,1.23,0.32,1.87v10.31c-0.02,0.99,0.76,1.75,1.61,2.15L90,23.98z M83.82,14.32
		c-2.2,0.69-5.39,1.79-6.68,3.79c-0.81,1.35,0.13,3.1,1.46,3.69c1.89,0.74,3.7-0.51,5.21-1.53v-5.95 M51.95,17.36l1.33,0.54
		c-0.81,2.8-3.27,4.97-5.98,5.94c-3.14,1.14-6.85,0.26-9.27-1.91c-1.68-1.47-2.65-3.59-2.67-5.82c-0.05-3.74,1.89-7.31,5.38-8.74
		c2.05-0.89,4.97-0.95,7.08-0.12c2.85,1.05,5.03,3.68,4.95,6.75H39.15c-0.03,3.7,2.28,7.54,6.27,7.51c2.6,0,5.56-1.49,6.47-3.99
		C51.9,17.52,51.47,18.62,51.95,17.36z M43.35,8.21c-2.21,0-3.97,2-4.17,4.13l8.72,0.01C47.87,9.97,45.68,8.16,43.35,8.21
		 M87.85,4.3C89.04,4.3,90,3.34,90,2.15S89.04,0,87.85,0c-1.19,0-2.15,0.96-2.15,2.15S86.66,4.3,87.85,4.3 M87.85,0.4
		c0.97,0,1.75,0.78,1.75,1.75S88.82,3.9,87.85,3.9c-0.97,0-1.75-0.78-1.75-1.75C86.1,1.18,86.89,0.4,87.85,0.4 M88.3,3.22
		l-0.52-0.79l-0.36-0.01v0.8h-0.45V1.08c0.22,0,1.1-0.04,1.29,0.04c0.27,0.09,0.46,0.34,0.45,0.63s-0.19,0.54-0.46,0.62l0.55,0.84
		H88.3z M87.42,2.02h0.55c0.08,0.01,0.15-0.02,0.21-0.07c0.06-0.05,0.09-0.13,0.08-0.2c0-0.08-0.03-0.16-0.08-0.21
		c-0.06-0.05-0.14-0.08-0.22-0.07h-0.54V2.02z"/>
</g>
</svg>
