<?xml version="1.0" encoding="utf-8"?>
<!-- Generator: Adobe Illustrator 27.2.0, SVG Export Plug-In . SVG Version: 6.00 Build 0)  -->
<svg version="1.1" id="Layer_1" xmlns="http://www.w3.org/2000/svg" xmlns:xlink="http://www.w3.org/1999/xlink" x="0px" y="0px"
	 viewBox="0 0 695.38 355.85" style="enable-background:new 0 0 695.38 355.85;" xml:space="preserve">
<style type="text/css">
	.st0{fill:#FFFFFF;}
	.st1{fill:#E31837;}
	.st2{fill:#005DAA;}
	.st3{font-family:'Napoli-Serial-Regular';}
	.st4{font-size:24px;}
</style>
<g>
	<path class="st0" d="M332.52,151.09c-78.67,0-157.33,0-236,0c0-32.33,0-64.67,0-97c150,0,300,0,450,0c0,32.33,0,64.67,0,97
		c-71,0-142,0-213,0c5.65-3.56,6.17-8.89,6.04-15.02c-0.35-16.32-0.13-32.66-0.11-48.99c0-1.76,0.16-3.52,0.25-5.16
		c14.99-2.42,14.99-2.42,15.2-5.17c-5.08,0-10.12,0-15.06,0c-1.02-10.97,2.19-14.57,16.43-17.81c-1.73-1.75-2.77-3.77-4.04-3.94
		c-9.8-1.26-18.9,6.61-19.41,16.48c-0.08,1.62-0.15,3.25-0.2,4.45c-2.42,2.38-8.04-1.17-8.13,5.05c3.16,0.27,5.57,0.47,8.06,0.69
		c0.1,1.64,0.24,2.79,0.24,3.94C332.7,107.44,332.61,129.27,332.52,151.09z M456.54,128.8c0-10.95-0.08-21.41,0.02-31.88
		c0.08-8.17,4.7-14.03,12.05-15.66c9.77-2.16,17.8,3.98,17.93,13.98c0.15,11.11,0.03,22.23,0.03,33.42c2.26,0,3.94,0,5.94,0
		c0-11.39-0.21-22.37,0.06-33.33c0.22-9.06,6.13-14.43,15.12-14.45c8.53-0.02,14.48,5.46,14.77,14.25
		c0.32,9.48,0.13,18.98,0.17,28.47c0.01,1.74,0,3.49,0,5.58c2.4-0.18,3.96-0.3,5.72-0.44c0-12.4,0.29-24.38-0.1-36.33
		C528,84,522.16,77.99,513.8,76.21c-9.51-2.03-17.3,0.86-23.5,8.76c-3.72-6.49-9.42-8.84-16.01-9.35
		c-6.87-0.54-12.33,2.83-17.51,7.5c-0.32-2.38-0.56-4.11-0.83-6.14c-1.88,0.13-3.44,0.24-5.1,0.36c0,17.34,0,34.26,0,51.47
		C452.68,128.8,454.27,128.8,456.54,128.8z M381.17,130.33c16.52,0.12,28-10.99,28.1-27.19c0.1-16.62-11.11-27.86-27.88-27.94
		c-16.69-0.08-28.1,10.79-28.32,26.98C352.84,119.12,363.9,130.2,381.17,130.33z M183.95,130.32c16.48,0.13,27.79-10.84,28.07-27.23
		c0.28-16.37-11.18-27.81-27.95-27.89c-16.82-0.08-28.25,11.03-28.3,27.53C155.71,119.27,166.86,130.18,183.95,130.32z
		 M311.47,102.78c-9.69-5.83-19.58-6.2-29.69-3.05c-7.5,2.34-12.16,8.37-12.04,14.85c0.13,6.46,4.58,11.83,12.33,13.9
		c9.82,2.62,19.45,2.49,28.19-3.74c0.33-0.24,0.84-0.22,1.39-0.35c0.26,1.58,0.5,3,0.75,4.46c1.93,0,3.53,0,5.63,0
		c0-10.88,0.13-21.51-0.03-32.14c-0.17-11.62-5.67-18.03-17.29-19.27c-6.73-0.71-13.6-0.1-20.41-0.04c-3.83,0.03-4.33,2.1-3.44,4.53
		c6.85,0,13.31-0.39,19.72,0.08C309.16,82.94,313.87,89.56,311.47,102.78z M144.28,128.8c0-11.97,0.45-23.45-0.14-34.87
		c-0.48-9.3-6.17-15.19-15.14-17.62c-9.95-2.69-18.21,0.41-25.58,8.22c-0.28-2.89-0.49-4.95-0.71-7.18c-1.82,0-3.36,0-5.03,0
		c0,17.37,0,34.4,0,51.79c2-0.17,3.55-0.29,5.44-0.45c0-10.24,0.02-20.04-0.01-29.84c-0.02-7.13,2.9-12.55,9.26-15.89
		c12.51-6.59,25.89,1.14,26.19,15.24c0.21,10.11,0.04,20.22,0.04,30.6C140.74,128.8,142.32,128.8,144.28,128.8z M240.96,118.04
		c-1.06-1.73-1.79-2.79-2.38-3.93c-5.65-10.95-11.49-21.81-16.8-32.92c-2.03-4.24-4.62-5.17-9.23-3.73
		c9.29,17.71,18.51,35.31,28.25,53.89c9.67-18.54,18.82-36.09,28.02-53.73c-4.91-1.91-7.12-0.23-8.98,3.53
		C253.82,93.34,247.48,105.37,240.96,118.04z M420.92,77.18c0,17.58,0,34.6,0,51.95c1.96-0.13,3.53-0.24,5.5-0.37
		c0-11.15-0.14-21.93,0.05-32.7c0.14-8.09,5.17-13.81,12.66-14.91c1.6-0.24,3.23-0.29,4.88-0.43c0-1.87,0-3.43,0-5.15
		c-7.24-1.14-12.47,2.19-17.28,7.55c-0.33-2.67-0.53-4.25-0.74-5.95C424.18,77.18,422.72,77.18,420.92,77.18z M546.48,126.28
		c-0.01-0.75-0.02-1.49-0.02-2.24c-1.76-1.21-3.81-3.64-5.22-3.32c-1.78,0.41-3.96,2.96-4.19,4.81c-0.16,1.27,2.62,3.99,4.22,4.11
		C542.91,129.76,544.73,127.5,546.48,126.28z"/>
	<path d="M332.52,151.09c0.09-21.82,0.19-43.65,0.26-65.47c0-1.15-0.13-2.3-0.24-3.94c-2.48-0.21-4.9-0.42-8.06-0.69
		c0.1-6.22,5.71-2.68,8.13-5.05c0.05-1.2,0.11-2.82,0.2-4.45c0.52-9.87,9.61-17.74,19.41-16.48c1.28,0.16,2.31,2.19,4.04,3.94
		c-14.24,3.24-17.45,6.83-16.43,17.81c4.94,0,9.98,0,15.06,0c-0.21,2.74-0.21,2.74-15.2,5.17c-0.08,1.64-0.24,3.4-0.25,5.16
		c-0.02,16.33-0.24,32.67,0.11,48.99c0.13,6.14-0.39,11.47-6.04,15.02C333.18,151.09,332.85,151.09,332.52,151.09z"/>
	<path d="M456.54,128.8c-2.28,0-3.86,0-5.68,0c0-17.2,0-34.13,0-51.47c1.66-0.12,3.22-0.23,5.1-0.36c0.28,2.03,0.51,3.76,0.83,6.14
		c5.17-4.67,10.63-8.04,17.51-7.5c6.59,0.51,12.29,2.86,16.01,9.35c6.2-7.89,13.99-10.78,23.5-8.76c8.35,1.78,14.2,7.79,14.47,16.2
		c0.39,11.95,0.1,23.93,0.1,36.33c-1.76,0.13-3.33,0.25-5.72,0.44c0-2.09,0.01-3.84,0-5.58c-0.03-9.49,0.15-18.99-0.17-28.47
		c-0.3-8.8-6.24-14.27-14.77-14.25c-8.99,0.02-14.9,5.39-15.12,14.45c-0.27,10.97-0.06,21.94-0.06,33.33c-2.01,0-3.69,0-5.94,0
		c0-11.2,0.11-22.31-0.03-33.42c-0.13-10-8.16-16.14-17.93-13.98c-7.35,1.63-11.97,7.49-12.05,15.66
		C456.47,107.38,456.54,117.85,456.54,128.8z"/>
	<path d="M381.17,130.33c-17.27-0.13-28.33-11.21-28.1-28.15c0.22-16.19,11.63-27.06,28.32-26.98
		c16.77,0.08,27.98,11.32,27.88,27.94C409.17,119.34,397.68,130.45,381.17,130.33z M402.62,103.07
		c0.02-13.25-8.73-22.24-21.62-22.22c-12.56,0.02-21.48,9.13-21.48,21.94c0,12.63,9.16,22.13,21.43,22.23
		C393.18,125.13,402.6,115.58,402.62,103.07z"/>
	<path d="M183.95,130.32c-17.09-0.14-28.24-11.05-28.18-27.59c0.06-16.51,11.48-27.62,28.3-27.53
		c16.76,0.08,28.22,11.52,27.95,27.89C211.74,119.48,200.43,130.45,183.95,130.32z M162.32,102.91c0.05,12.7,9.23,22.13,21.52,22.11
		c12.11-0.02,21.71-9.77,21.72-22.07c0.02-12.96-9.14-22.19-21.92-22.09C171.02,80.95,162.27,90.01,162.32,102.91z"/>
	<path d="M311.47,102.78c2.4-13.22-2.31-19.84-14.9-20.77c-6.4-0.47-12.87-0.08-19.72-0.08c-0.89-2.42-0.39-4.49,3.44-4.53
		c6.81-0.06,13.68-0.68,20.41,0.04c11.63,1.23,17.12,7.65,17.29,19.27c0.16,10.63,0.03,21.26,0.03,32.14c-2.1,0-3.7,0-5.63,0
		c-0.24-1.46-0.48-2.88-0.75-4.46c-0.55,0.13-1.06,0.11-1.39,0.35c-8.74,6.23-18.37,6.36-28.19,3.74
		c-7.75-2.07-12.2-7.44-12.33-13.9c-0.13-6.48,4.53-12.5,12.04-14.85C291.89,96.57,301.78,96.95,311.47,102.78z M293.67,126.47
		c4.96-1.92,10.23-3.13,14.56-5.84c5.3-3.31,5.05-10.06,0.29-14.05c-6.59-5.52-21.64-5.67-28.25-0.26
		c-5.36,4.38-5.48,11.48,0.38,15.19C284.3,123.8,288.83,124.68,293.67,126.47z"/>
	<path d="M144.28,128.8c-1.96,0-3.54,0-5.67,0c0-10.38,0.17-20.5-0.04-30.6c-0.3-14.1-13.68-21.83-26.19-15.24
		c-6.36,3.35-9.28,8.77-9.26,15.89c0.03,9.8,0.01,19.59,0.01,29.84c-1.89,0.16-3.44,0.28-5.44,0.45c0-17.39,0-34.42,0-51.79
		c1.67,0,3.21,0,5.03,0c0.22,2.23,0.42,4.29,0.71,7.18c7.36-7.8,15.63-10.9,25.58-8.22c8.97,2.42,14.66,8.32,15.14,17.62
		C144.73,105.35,144.28,116.83,144.28,128.8z"/>
	<path d="M240.96,118.04c6.52-12.67,12.86-24.7,18.88-36.88c1.86-3.76,4.07-5.45,8.98-3.53c-9.2,17.63-18.35,35.18-28.02,53.73
		c-9.74-18.59-18.97-36.18-28.25-53.89c4.61-1.45,7.2-0.51,9.23,3.73c5.31,11.11,11.15,21.97,16.8,32.92
		C239.17,115.24,239.91,116.31,240.96,118.04z"/>
	<path d="M420.92,77.18c1.79,0,3.26,0,5.05,0c0.21,1.7,0.41,3.28,0.74,5.95c4.81-5.36,10.04-8.69,17.28-7.55c0,1.71,0,3.28,0,5.15
		c-1.65,0.14-3.28,0.19-4.88,0.43c-7.48,1.1-12.52,6.82-12.66,14.91c-0.18,10.77-0.05,21.54-0.05,32.7
		c-1.97,0.13-3.54,0.24-5.5,0.37C420.92,111.78,420.92,94.76,420.92,77.18z"/>
	<path d="M546.48,126.28c-1.75,1.22-3.56,3.48-5.21,3.36c-1.6-0.11-4.38-2.84-4.22-4.11c0.24-1.85,2.41-4.4,4.19-4.81
		c1.41-0.33,3.46,2.11,5.22,3.32C546.46,124.79,546.47,125.54,546.48,126.28z"/>
	<path class="st0" d="M402.62,103.07c-0.02,12.51-9.43,22.06-21.66,21.95c-12.27-0.1-21.43-9.61-21.43-22.23
		c0-12.81,8.92-21.92,21.48-21.94C393.88,80.83,402.64,89.82,402.62,103.07z"/>
	<path class="st0" d="M162.32,102.91c-0.05-12.9,8.7-21.96,21.32-22.06c12.78-0.1,21.94,9.13,21.92,22.09
		c-0.01,12.31-9.61,22.06-21.72,22.07C171.54,125.04,162.37,115.61,162.32,102.91z"/>
	<path class="st0" d="M293.67,126.47c-4.85-1.78-9.38-2.67-13.01-4.97c-5.86-3.71-5.74-10.8-0.38-15.19
		c6.6-5.4,21.66-5.26,28.25,0.26c4.76,3.99,5.01,10.74-0.29,14.05C303.9,123.34,298.64,124.55,293.67,126.47z"/>
</g>
<g>
	<g transform="matrix(1.63598 0 0 1.63598 112.676 141.439)">
		<path class="st0" d="M296.37,11.31c-1.53-1.85-4.22-2.91-7.39-2.91c-3.35,0-6.37,1.14-8.46,2.99l0.34-2.14l-0.91-0.27
			c-1.28-0.38-2.71-0.58-4.12-0.58c-2.43,0-4.75,0.75-6.62,1.99l0.54-1.78h-14.51l-0.17,0.57c-1.29-0.52-2.71-0.78-4.3-0.78
			c-2.99,0-6.22,1.16-7.9,3.39c-0.11-0.16-0.23-0.32-0.35-0.48c-1.53-1.85-4.22-2.91-7.39-2.91c-3.25,0-6.19,1.07-8.27,2.83
			l0.81-4.92l-0.92-0.27c-1.57-0.45-3.32-0.69-5.05-0.69c-6.36,0-12.14,4.04-13.17,9.2c-0.44,2.19,0.07,4.32,1.44,5.99
			c1.16,1.42,2.88,2.43,4.93,2.95h-6.3v8.06h32.08l0.05-0.1l0.01,0.1h3.86l0.52-0.85l-0.16,0.85h8.73l0.13-0.67
			c0.77,0.5,1.76,0.77,2.91,0.77c1.03,0,1.98-0.21,2.8-0.59l-0.09,0.5h12.24l0.02-0.11c0.57,0.13,1.16,0.2,1.73,0.2
			c0.35,0,0.7-0.03,1.06-0.09h4.67l0.35-0.74h0.31l0.1,0.74h14.4l0.72-3.77h-0.26l0.1-0.52h0.19l0.72-3.77h-0.4
			c0.32-0.29,0.56-0.67,0.64-1.1c0.1-0.51-0.04-1.03-0.36-1.42c-0.09-0.1-0.18-0.19-0.29-0.27c1.14-1.17,1.93-2.59,2.24-4.19
			C297.98,14.53,297.55,12.74,296.37,11.31L296.37,11.31z M288.04,27.48h-0.44l0.67-3.5c0.15-0.02,0.3-0.04,0.45-0.07L288.04,27.48z
			 M277.74,16.07c-0.05,0.23-0.08,0.47-0.1,0.69c-0.97,0.65-1.88,0.96-2.86,0.96c-0.66,0-1.23-0.22-1.53-0.58
			c-0.17-0.2-0.23-0.43-0.17-0.7c0.17-0.9,1.39-1.69,2.61-1.69c0.76,0,1.47,0.27,2.17,0.82C277.82,15.75,277.77,15.91,277.74,16.07
			L277.74,16.07z M278.72,23.47l-0.47,0.78l-0.39-0.22c-0.26-0.15-0.54-0.26-0.83-0.36c0.21-0.05,0.41-0.11,0.58-0.17l0.55-0.2
			l0.54-2.38c0.07,0.1,0.14,0.21,0.22,0.31c0.82,0.99,2,1.75,3.43,2.24L278.72,23.47z M283.53,23.8l-0.19,0.99l-0.26-1.1
			C283.23,23.73,283.38,23.77,283.53,23.8L283.53,23.8z M288.15,14.87c0.59,0,1.05,0.16,1.28,0.44c0.22,0.26,0.21,0.6,0.16,0.83
			c-0.19,0.97-1.19,1.65-2.43,1.65c-0.6,0-1.08-0.16-1.31-0.44c-0.16-0.19-0.21-0.46-0.14-0.8
			C285.88,15.72,286.77,14.87,288.15,14.87z M260.83,24.19c-0.17-0.12-0.35-0.22-0.55-0.31h0.61L260.83,24.19z M257.49,27.47
			c-0.08,0.07-0.21,0.12-0.35,0.13C257.21,27.53,257.33,27.48,257.49,27.47z M256.54,14.96l-0.72,2.37
			c-0.05-0.63-0.24-1.21-0.59-1.72c-0.14-0.21-0.31-0.4-0.5-0.58L256.54,14.96z M235.75,16.14c-0.19,0.97-1.19,1.65-2.43,1.65
			c-0.6,0-1.08-0.16-1.31-0.44c-0.16-0.19-0.21-0.46-0.14-0.8c0.16-0.84,1.05-1.68,2.43-1.68c0.59,0,1.05,0.16,1.28,0.44
			C235.81,15.57,235.8,15.91,235.75,16.14L235.75,16.14z M244.08,23.86l-0.02,0.05l0-0.05C244.06,23.85,244.07,23.85,244.08,23.86
			L244.08,23.86z M254.8,20.7l-0.84,2.77h-3.23C252.38,22.92,253.86,22.01,254.8,20.7z M255.15,23.89h0.18
			c-0.07,0.03-0.13,0.06-0.2,0.09L255.15,23.89z M220.39,16.61c-0.92,0-1.72-0.3-2.14-0.81c-0.24-0.29-0.32-0.62-0.25-0.99
			c0.24-1.21,1.85-2.23,3.51-2.23c1.12,0,2.16,0.42,3.18,1.28c-0.27,0.5-0.48,1.03-0.64,1.58
			C222.82,16.24,221.64,16.61,220.39,16.61z M239.39,22.33l1.05,0.47c0.58,0.26,1.22,0.48,1.9,0.67h-1.95l-0.21,0.42l-0.03-0.42
			h-3.38C237.72,23.18,238.6,22.79,239.39,22.33L239.39,22.33z M264.98,27.48l0.76-4.01h-3.7l2.59-8.54l0.79,0.03
			c-0.15,0.39-0.27,0.79-0.35,1.2c-0.37,1.9,0.08,3.74,1.26,5.18c0.78,0.94,1.85,1.66,3.1,2.13h-3.26l-0.76,4.01L264.98,27.48z
			 M223.81,23.17l0.56-0.2l0.49-2.07c0.08,0.11,0.15,0.22,0.24,0.32c0.82,0.99,2,1.75,3.43,2.24h-5.89
			C223.06,23.39,223.47,23.29,223.81,23.17z M290.62,23.47c0.48-0.15,0.94-0.32,1.38-0.51c0.06,0.16,0.14,0.31,0.25,0.44
			c0.02,0.03,0.05,0.05,0.08,0.07H290.62z"/>
		<g transform="translate(-208.5 -290.5)">
			<path class="st1" d="M463.27,304.45l3.25-0.12l-2.73,8.98h5.83l2.72-8.98l3.18,0.12l1.29-4.26h-12.25L463.27,304.45z
				 M451.2,306.78c-0.82,4.21-5.28,6.74-10.17,6.74c-4.89,0-8.38-2.52-7.57-6.74c0.8-4.13,5.32-6.81,10.19-6.81
				C448.51,299.97,451.99,302.65,451.2,306.78L451.2,306.78z M439.31,306.85c-0.29,1.5,0.75,2.52,2.51,2.52
				c1.77,0,3.2-1.03,3.49-2.52c0.27-1.39-0.65-2.56-2.5-2.56C440.96,304.29,439.58,305.46,439.31,306.85L439.31,306.85z"/>
			<path class="st1" d="M449.39,312.31c1.66,0.75,3.92,1.2,5.94,1.2c3.47,0,7.26-1.55,7.86-4.68c0.43-2.23-1.15-3.31-3.53-3.76
				l-1.27-0.24c-0.43-0.09-1.14-0.16-1.05-0.64c0.1-0.54,0.88-0.7,1.39-0.7c1.25,0,2.3,0.44,3.19,0.99l2.22-3.36
				c-1.42-0.78-3.03-1.15-4.86-1.15c-3.49,0-7.29,1.74-7.89,4.86c-0.4,2.05,1.3,3.15,3.52,3.48l1.14,0.17
				c0.52,0.09,1.27,0.14,1.16,0.73c-0.11,0.59-1.07,0.78-1.64,0.78c-1.34,0-2.49-0.54-3.4-1.2l-0.26-0.19L449.39,312.31z
				 M488.15,300.51c-1.17-0.35-2.49-0.54-3.81-0.54c-4.7,0-8.97,3.06-9.71,6.89c-0.72,3.74,2.29,6.65,6.86,6.65
				c1.04,0,3.24-0.16,4.25-0.52l1.12-4.91c-1.08,0.75-2.24,1.22-3.58,1.22c-1.74,0-3.04-1.11-2.76-2.56
				c0.28-1.43,1.92-2.56,3.66-2.56c1.32,0,2.37,0.61,3.17,1.32L488.15,300.51z M497.49,299.97c-4.87,0-9.39,2.68-10.19,6.81
				c-0.81,4.21,2.67,6.74,7.57,6.74c4.89,0,9.36-2.52,10.17-6.74C505.84,302.65,502.36,299.97,497.49,299.97z M496.65,304.29
				c1.85,0,2.77,1.17,2.5,2.56c-0.29,1.5-1.72,2.52-3.49,2.52c-1.77,0-2.8-1.03-2.51-2.52C493.43,305.46,494.8,304.29,496.65,304.29
				L496.65,304.29z M434.96,297.57c-1.45-0.42-3.11-0.65-4.75-0.65c-5.86,0-11.19,3.7-12.12,8.33c-0.9,4.52,2.85,8.04,8.56,8.04
				c1.3,0,4.04-0.19,5.3-0.63l1.4-5.93c-1.35,0.9-2.79,1.47-4.46,1.47c-2.18,0-3.79-1.35-3.44-3.09c0.34-1.72,2.4-3.09,4.57-3.09
				c1.64,0,2.96,0.74,3.95,1.6L434.96,297.57z"/>
			<path class="st1" d="M501.45,312.67c0.09-0.46,0.6-0.83,1.15-0.83c0.55,0,0.93,0.37,0.84,0.83c-0.09,0.46-0.6,0.83-1.15,0.83
				C501.74,313.5,501.37,313.13,501.45,312.67z M503.19,312.67c0.07-0.37-0.19-0.61-0.62-0.61c-0.43,0-0.78,0.24-0.85,0.61
				c-0.07,0.37,0.19,0.61,0.62,0.61C502.76,313.28,503.12,313.04,503.19,312.67L503.19,312.67z M502.83,313.1h-0.26l-0.16-0.37
				h-0.17l-0.07,0.37h-0.22l0.16-0.87h0.51c0.22,0,0.34,0.06,0.3,0.27c-0.03,0.15-0.15,0.23-0.28,0.24L502.83,313.1z M502.51,312.57
				c0.11,0,0.2,0,0.22-0.09c0.01-0.08-0.08-0.08-0.19-0.08h-0.24l-0.03,0.17H502.51z"/>
		</g>
		<path class="st2" d="M253.44,27.31c0.46-1.74,2.38-2.85,4.45-2.85c2.15,0,3.69,1.2,3.33,3.06c-0.36,1.89-2.33,3.03-4.49,3.03
			c-2.08,0-3.58-1.05-3.37-2.81l-0.52,2.72h-2.48l0.39-2.05h-1.58l-0.39,2.05h-2.48l1.04-5.46L244,30.45h-2.24l-0.2-3.21h-0.08
			c-0.09,0.31-0.16,0.6-0.3,0.89l-1.15,2.32h-2.19l-1.36-5.9h2.67l0.22,3.52h0.06c0.12-0.36,0.24-0.74,0.42-1.09l1.21-2.43h1.97
			l0.3,3.52h0.06c0.1-0.34,0.22-0.7,0.38-1.04l1.18-2.48h4.97l-0.38,1.99h1.58l0.38-1.99h2.48L253.44,27.31z M271.85,28.34
			l0.11,0.09c0.4,0.3,0.91,0.54,1.5,0.54c0.25,0,0.67-0.09,0.72-0.35c0.05-0.27-0.28-0.29-0.51-0.33l-0.5-0.08
			c-0.98-0.15-1.73-0.64-1.55-1.56c0.27-1.4,1.95-2.18,3.49-2.18c0.81,0,1.52,0.16,2.15,0.52l-0.98,1.51
			c-0.39-0.25-0.85-0.45-1.41-0.45c-0.23,0-0.57,0.07-0.61,0.31c-0.04,0.22,0.27,0.25,0.46,0.29l0.56,0.11
			c1.05,0.2,1.75,0.69,1.56,1.69c-0.02,0.12-0.06,0.23-0.1,0.34l2.57-4.23h2.84l1.29,5.4l1.03-5.4h2.57l-0.76,4.01h2.16l-0.36,1.89
			h-4.52v0h-2.72l-0.09-0.74h-1.94l-0.35,0.74h-2.72l0.64-1.05c-0.66,0.76-1.87,1.14-3,1.14c-0.87,0-1.84-0.19-2.57-0.52l-0.08,0.42
			h-4.84l1.12-5.9h4.76l-0.31,1.61h-2.17l-0.11,0.56h1.98l-0.29,1.53h-1.98l-0.11,0.58h2.24l-0.2,1.04L271.85,28.34z M236.91,28.95
			l0.34,1.5h0.02l0,0.01H210v-1.51H236.91z M293.39,30.45h-4.84l1.12-5.9h4.76l-0.31,1.61h-2.17l-0.11,0.56h1.98l-0.29,1.53h-1.98
			l-0.11,0.58h2.24L293.39,30.45z M265.4,30.45h-4.73l1.12-5.9h2.57l-0.76,4.01h2.16L265.4,30.45z M255.98,27.54
			c-0.13,0.67,0.33,1.13,1.11,1.13c0.78,0,1.41-0.46,1.54-1.13c0.12-0.63-0.29-1.15-1.11-1.15C256.71,26.4,256.1,26.92,255.98,27.54
			z M236.42,26.8l0.35,1.51H210V26.8H236.42z M280.56,26.51h-0.09l-0.81,1.8h1.03l-0.1-1.04C280.56,27.02,280.56,26.76,280.56,26.51
			z M235.9,24.56l0.24,1.05l0.12,0.55H210v-1.6H235.9z"/>
	</g>
</g>
<text transform="matrix(1 0 0 1 363.105 172.7656)" class="st3 st4">Only at</text>
</svg>
