<?xml version="1.0" encoding="utf-8"?>
<!-- Generator: Adobe Illustrator 27.2.0, SVG Export Plug-In . SVG Version: 6.00 Build 0)  -->
<svg version="1.1" id="Layer_1" xmlns="http://www.w3.org/2000/svg" xmlns:xlink="http://www.w3.org/1999/xlink" x="0px" y="0px"
	 viewBox="0 0 512 166.5" style="enable-background:new 0 0 512 166.5;" xml:space="preserve">
<style type="text/css">
	.st0{fill:#FFFFFF;}
	.st1{fill:#45166A;}
	.st2{fill:#8C6EA3;}
</style>
<g>
	<g>
		<path class="st0" d="M511.91,92.42c0,22.46-0.07,44.92,0.09,67.37c0.02,2.98-0.6,3.58-3.59,3.58
			c-68.15-0.11-136.29-0.08-204.44-0.08c-0.13-0.32-0.1-0.63,0.08-0.93c3.08-0.83,3.09-3.29,3.09-5.77c0-5.99,0-11.97,0-17.96
			c0-5.17,0-10.35,0-17.06c6.12,8.11,13.35,10.81,21.51,12.13c13.49,2.19,25.93-0.01,35.86-9.62c16.41-15.87,20.74-35.5,13.16-56.59
			c-9.07-25.25-32.89-31.71-55.36-26.58c-6.6,1.51-12.14,5.54-17.35,10.94c0-1.81,0.01-2.64,0-3.47c-0.06-6.3-1.3-7.54-7.59-7.56
			c-4.66-0.02-9.33,0.1-13.99-0.03c-4.07-0.12-5.54,1.67-5.53,5.7c0.09,36.92,0.04,73.84,0.07,110.76c0,1.91-0.47,4.1,1.97,5.12
			c0.18,0.3,0.2,0.61,0.08,0.93c-84.64,0-169.28,0-253.92,0c-0.13-0.32-0.1-0.63,0.08-0.93c2.42-1.28,3.33-3.17,3.28-6.01
			c-0.18-10.92-0.1-21.84-0.12-32.75c0.34,0,0.61-0.14,0.82-0.4c13.89,14.44,35.62,13.75,48.43,6.7
			c21.57-11.88,28.86-38,22.35-59.36C93.14,45.09,69.5,34.3,43.08,41.46c-6.23,1.69-10.77,6.04-16.02,9.99c0-1.39,0.01-2.22,0-3.05
			c-0.05-6.27-1.32-7.56-7.52-7.59c-3.16-0.02-6.32-0.07-9.48,0.02c-3.4,0.09-6.98-0.78-9.99,1.69C0.07,30.53,0.15,18.56,0,6.58
			c-0.03-2.5,0.57-3.08,3.07-3.06c20.33,0.12,40.65,0.07,60.98,0.07c105.63,0,211.27,0,316.9,0c-2.13,1.2-2.34,3.15-2.32,5.35
			c0.07,9.15,0.45,18.32-0.1,27.43c-0.47,7.69,1.52,14.24,6.11,20.22c0.79,1.02,1.44,2.16,2.07,3.29c5.37,9.7,5.71,20.27,5.21,30.94
			c-0.39,8.36-3.1,16.06-7.17,23.36c-2.81,5.03-6.76,9.56-6.83,15.83c-0.05,3.75,1.54,5.53,5.3,5.51c5.66-0.04,11.33,0,16.99-0.01
			c7.19-0.01,7.58-0.4,7.58-7.69c0-38.58-0.04-77.17,0.07-115.75c0.01-3.32-0.42-6.17-2.9-8.48c34.49,0,68.98,0.05,103.47-0.08
			c2.98-0.01,3.6,0.6,3.59,3.58c-0.15,24.12-0.09,48.24-0.09,72.36c-1.38-1.86-1.46-4.13-1.98-6.26
			c-2.97-12.29-8.47-22.85-20.41-28.72c-16.74-8.23-33.91-7.25-50.08,0.5c-17.61,8.43-26.03,23.5-25.5,43.25
			c0.4,14.83,6.62,26.58,18.56,35.37c13.53,9.96,28.71,12.83,44.93,9.63c9.85-1.94,18.82-6.18,25.88-13.71
			c2.19-2.34,2.78-4.21-0.64-6.22c-3.78-2.22-7.39-4.79-10.8-7.54c-3.93-3.17-6.96-2.96-10.63,0.7c-6.35,6.32-14.26,8.55-22.87,5.64
			c-7.87-2.66-13.15-8.17-15.12-16.83c20.15,0,40.12-0.07,60.09,0.07C506.69,95.34,509.53,94.79,511.91,92.42z M165.86,120.91
			c0.08,1.6,0.14,2.43,0.15,3.25c0.09,6.44,1.07,7.53,7.39,7.68c4.49,0.11,8.99,0.08,13.48-0.04c5.67-0.14,7.38-1.81,7.4-7.5
			c0.05-25.26,0.04-50.52,0.01-75.78c-0.01-5.67-2.03-7.62-7.83-7.71c-4.66-0.07-9.32-0.06-13.98,0c-5.84,0.08-7.22,1.6-7.41,7.31
			c-0.49,15.04,0.82,30.09-0.92,45.15c-1.27,10.95-7.76,16.95-19.58,16.06c-7.09-0.54-12.46-6.58-12.48-17.63
			c-0.02-14.45,0.12-28.91,0.07-43.36c-0.02-5.19-2.35-7.43-7.57-7.52c-5.33-0.09-10.65-0.02-15.98-0.02
			c-2.31,0-4.96-0.51-6.21,2.04c-1.19,2.44-0.08,4.76,1.36,6.86c13.66,19.93,14.63,41.01,5.56,62.92
			c-2.54,6.14-1.48,10.45,4.05,14.45c12.83,9.27,26.36,9.47,40.55,3.36C158.61,128.42,160.94,123.71,165.86,120.91z M205.3,86.44
			c0,13.3,0.11,26.6-0.06,39.89c-0.05,4.1,1.65,5.63,5.53,5.57c5.49-0.09,10.99,0,16.48-0.03c6.33-0.02,7.55-1.22,7.58-7.51
			c0.07-13.63-0.04-27.26,0.23-40.89c0.16-8.27,4.82-16.33,13.24-18.23c5.65-1.28,10.97-2.55,16.76-0.9
			c4.17,1.19,6.84-0.82,7.04-5.11c0.24-5.14,0.07-10.3,0.05-15.46c-0.01-2.32-1.45-4.02-3.48-4.16
			c-11.19-0.76-22.09-0.56-29.97,9.53c-1.13,1.44-1.51,5.07-4.1,3.85c-1.6-0.76-0.72-3.99-0.53-6.03c0.44-4.59-1.46-6.36-5.97-6.21
			c-5.49,0.19-10.99,0.17-16.48,0c-4.49-0.13-6.54,1.31-6.43,6.28C205.49,60.17,205.3,73.3,205.3,86.44z"/>
		<path class="st1" d="M29.3,123.59c0.02,10.92-0.06,21.84,0.12,32.75c0.05,2.83-0.86,4.73-3.28,6.01
			c-4.74-0.05-9.48-0.29-14.2-0.07c-2.95,0.14-6.14-1.21-8.87,1c-3.44,0.92-3.02-1.32-3.02-3.49C0.08,120.7,0.07,81.61,0.07,42.51
			c3.01-2.46,6.59-1.59,9.99-1.69c3.16-0.09,6.32-0.03,9.48-0.02c6.2,0.03,7.47,1.32,7.52,7.59c0.01,0.83,0,1.66,0,3.05
			c5.25-3.95,9.78-8.31,16.02-9.99c26.42-7.15,50.06,3.63,57.82,29.08c6.51,21.36-0.78,47.47-22.35,59.36
			c-12.8,7.05-34.54,7.74-48.43-6.7c-0.18-0.18-0.36-0.36-0.55-0.55C29.49,122.97,29.39,123.28,29.3,123.59z M49.48,109.38
			c15.63,0.44,23.84-9.32,24.39-22.06c0.64-14.64-9-23.6-23.88-23.89c-14.75-0.28-22.73,10.36-22.91,19.79
			C26.76,100.5,34.3,109.22,49.48,109.38z"/>
		<path class="st1" d="M511.91,92.42c-2.38,2.37-5.23,2.92-8.57,2.9c-19.97-0.14-39.94-0.07-60.09-0.07
			c1.97,8.66,7.24,14.17,15.12,16.83c8.61,2.9,16.52,0.68,22.87-5.64c3.67-3.66,6.71-3.87,10.63-0.7c3.41,2.75,7.02,5.32,10.8,7.54
			c3.42,2.01,2.83,3.88,0.64,6.22c-7.05,7.53-16.03,11.77-25.88,13.71c-16.22,3.19-31.4,0.32-44.93-9.63
			c-11.94-8.79-18.16-20.53-18.56-35.37c-0.53-19.74,7.89-34.81,25.5-43.25c16.17-7.75,33.34-8.73,50.08-0.5
			c11.94,5.87,17.44,16.43,20.41,28.72c0.52,2.13,0.59,4.4,1.98,6.26C511.91,83.77,511.91,88.09,511.91,92.42z M462.4,76.15
			c4.32,0,8.64,0,12.96,0c7.41,0,8.13-1.22,4.76-8.02c-0.36-0.73-0.73-1.46-1.21-2.11c-5.41-7.36-13.36-7.48-21.03-6.28
			c-7.12,1.11-11.94,5.66-14.18,13.06c-0.96,3.18-0.32,3.38,2.25,3.36C451.43,76.13,456.92,76.15,462.4,76.15z"/>
		<path class="st1" d="M404.95,3.58c2.48,2.31,2.91,5.17,2.9,8.48c-0.1,38.58-0.07,77.17-0.07,115.75c0,7.29-0.39,7.68-7.58,7.69
			c-5.66,0.01-11.33-0.03-16.99,0.01c-3.75,0.02-5.34-1.76-5.3-5.51c0.08-6.27,4.02-10.8,6.83-15.83
			c4.07-7.29,6.78-14.99,7.17-23.36c0.5-10.67,0.17-21.24-5.21-30.94c-0.63-1.13-1.29-2.27-2.07-3.29
			c-4.59-5.98-6.59-12.53-6.11-20.22c0.56-9.11,0.17-18.29,0.1-27.43c-0.02-2.2,0.2-4.15,2.32-5.35
			C388.95,3.58,396.95,3.58,404.95,3.58z"/>
		<path class="st2" d="M304.05,162.35c-0.18,0.3-0.2,0.61-0.08,0.93c-8,0-16,0-23.99,0c0.13-0.32,0.1-0.63-0.08-0.93
			C287.96,162.35,296,162.35,304.05,162.35z"/>
		<path class="st2" d="M3.07,163.29c2.73-2.21,5.91-0.87,8.87-1c4.72-0.22,9.47,0.02,14.2,0.07c-0.18,0.3-0.2,0.61-0.08,0.93
			C18.4,163.29,10.73,163.29,3.07,163.29z"/>
		<path class="st1" d="M304.05,162.35c-8.05,0-16.1,0-24.15,0c-2.44-1.02-1.97-3.21-1.97-5.12c-0.02-36.92,0.02-73.84-0.07-110.76
			c-0.01-4.02,1.46-5.81,5.53-5.7c4.66,0.13,9.33,0.02,13.99,0.03c6.29,0.02,7.53,1.27,7.59,7.56c0.01,0.83,0,1.66,0,3.47
			c5.21-5.41,10.74-9.44,17.35-10.94c22.47-5.13,46.28,1.33,55.36,26.58c7.58,21.09,3.25,40.72-13.16,56.59
			c-9.94,9.61-22.37,11.81-35.86,9.62c-8.16-1.32-15.39-4.02-21.51-12.13c0,6.71,0,11.89,0,17.06c0,5.99,0,11.97,0,17.96
			C307.15,159.06,307.13,161.53,304.05,162.35z M350.96,86.72c1.35-15.69-9.37-22.91-23.48-23.22
			c-14.88-0.33-22.01,10.7-22.75,21.38c-0.96,13.86,9.6,25.76,24.86,24.68C342.35,108.66,350.96,100.31,350.96,86.72z"/>
		<path class="st1" d="M165.86,120.91c-4.92,2.8-7.26,7.5-11.95,9.52c-14.19,6.12-27.72,5.92-40.55-3.36
			c-5.53-4-6.59-8.31-4.05-14.45c9.07-21.92,8.1-42.99-5.56-62.92c-1.44-2.1-2.55-4.43-1.36-6.86c1.25-2.55,3.9-2.04,6.21-2.04
			c5.33,0,10.65-0.07,15.98,0.02c5.23,0.09,7.56,2.32,7.57,7.52c0.04,14.45-0.1,28.91-0.07,43.36c0.02,11.05,5.38,17.09,12.48,17.63
			c11.81,0.9,18.31-5.11,19.58-16.06c1.74-15.06,0.43-30.11,0.92-45.15c0.18-5.71,1.56-7.23,7.41-7.31c4.66-0.06,9.32-0.07,13.98,0
			c5.8,0.09,7.83,2.03,7.83,7.71c0.04,25.26,0.04,50.52-0.01,75.78c-0.01,5.69-1.72,7.35-7.4,7.5c-4.49,0.11-8.99,0.15-13.48,0.04
			c-6.33-0.15-7.3-1.25-7.39-7.68C166,123.34,165.94,122.51,165.86,120.91z"/>
		<path class="st1" d="M205.3,86.44c0-13.13,0.2-26.27-0.1-39.39c-0.11-4.96,1.93-6.41,6.43-6.28c5.49,0.16,10.99,0.18,16.48,0
			c4.51-0.15,6.41,1.62,5.97,6.21c-0.19,2.04-1.07,5.27,0.53,6.03c2.58,1.22,2.97-2.4,4.1-3.85c7.87-10.09,18.78-10.29,29.97-9.53
			c2.03,0.14,3.47,1.84,3.48,4.16c0.02,5.15,0.2,10.31-0.05,15.46c-0.2,4.29-2.87,6.3-7.04,5.11c-5.79-1.65-11.11-0.38-16.76,0.9
			c-8.42,1.91-13.08,9.96-13.24,18.23c-0.26,13.63-0.15,27.26-0.23,40.89c-0.03,6.29-1.25,7.49-7.58,7.51
			c-5.49,0.02-10.99-0.06-16.48,0.03c-3.89,0.06-5.59-1.46-5.53-5.57C205.4,113.03,205.3,99.73,205.3,86.44z"/>
		<path class="st2" d="M29.3,123.59c0.09-0.31,0.19-0.63,0.28-0.94c0.18,0.18,0.36,0.36,0.55,0.55
			C29.91,123.46,29.64,123.59,29.3,123.59z"/>
		<path class="st0" d="M49.48,109.38c-15.18-0.16-22.71-8.88-22.39-26.15c0.18-9.44,8.16-20.08,22.91-19.79
			c14.88,0.29,24.52,9.25,23.88,23.89C73.32,100.06,65.1,109.82,49.48,109.38z"/>
		<path class="st0" d="M462.4,76.15c-5.48,0-10.97-0.03-16.45,0.01c-2.58,0.02-3.22-0.18-2.25-3.36c2.24-7.4,7.06-11.95,14.18-13.06
			c7.67-1.2,15.62-1.09,21.03,6.28c0.48,0.65,0.85,1.39,1.21,2.11c3.38,6.8,2.66,8.02-4.76,8.02
			C471.04,76.15,466.72,76.15,462.4,76.15z"/>
		<path class="st0" d="M350.96,86.72c0,13.59-8.61,21.95-21.37,22.85c-15.26,1.08-25.83-10.83-24.86-24.68
			c0.74-10.68,7.87-21.71,22.75-21.38C341.59,63.81,352.31,71.03,350.96,86.72z"/>
	</g>
</g>
</svg>
