<?xml version="1.0" encoding="utf-8"?>
<!-- Generator: Adobe Illustrator 27.2.0, SVG Export Plug-In . SVG Version: 6.00 Build 0)  -->
<svg version="1.1" id="layer" xmlns="http://www.w3.org/2000/svg" xmlns:xlink="http://www.w3.org/1999/xlink" x="0px" y="0px"
	 viewBox="0 0 599.95 97.4" style="enable-background:new 0 0 599.95 97.4;" xml:space="preserve">
<style type="text/css">
	.st0{fill:#133156;}
</style>
<path class="st0" d="M17.55,44.3l-4.4-1.1c-4.2-1-5.4-1.9-5.4-4.1c0-3,3.5-3.7,5.6-3.7c2.7,0,4.6,1.2,5.9,3.7
	c0.1,0.2,0.3,0.3,0.5,0.5c0.2,0.1,0.5,0,0.7-0.1l3.9-2.5c0.3-0.2,0.5-0.7,0.3-1c-1.9-3.9-5.9-5.9-11-5.9c-6.3-0.1-12.5,3-12.5,9.9
	c0,3.1,1.5,7.2,8.5,8.8l4.2,1c3.3,0.8,5.3,1.7,5.3,4.2c0,3-3.2,4.3-6.5,4.3c-3.9,0-6.2-2.3-7.4-4.2c-0.1-0.2-0.3-0.3-0.5-0.3
	s-0.5,0-0.7,0.1l-3.7,2.5c-0.3,0.2-0.5,0.8-0.2,1.1c2.9,4.2,7.1,6.4,12.6,6.4c5.9,0,12.8-2.7,12.8-10.3
	C25.75,49,22.45,45.5,17.55,44.3z M45.55,11.6h-4.4c-0.5,0-0.8,0.3-0.8,0.8v49.7c0,0.5,0.3,0.8,0.8,0.8h4.4c0.5,0,0.8-0.3,0.8-0.8
	V12.5C46.25,12.1,45.95,11.6,45.55,11.6z M76.15,29.8c-9.4,0-16.4,7.3-16.4,17s7.2,17,16.7,17c5.6,0,10.3-2.3,13.9-6.9
	c0.2-0.3,0.2-0.9-0.1-1.1l-3.4-2.7c0-0.2-0.2-0.2-0.5-0.2c-0.2,0-0.5,0.2-0.5,0.3c-1.5,2.4-4.7,4.9-9.3,4.9c-5.3,0-9.6-4-10.3-9.4
	c1.7,0,24.8,0,24.8,0c0.5,0,0.8-0.3,0.8-0.8v-2C91.85,36.6,85.45,29.8,76.15,29.8z M66.35,43.6c0.5-4.3,5.1-8.3,9.9-8.3
	c5.4,0,8.8,3.2,9.1,8.3H66.35z M122.05,29.8c-9.4,0-16.4,7.3-16.4,17s7.2,17,16.7,17c5.6,0,10.3-2.3,13.9-6.9
	c0.2-0.3,0.2-0.9-0.1-1.1l-3.4-2.7c-0.2-0.1-0.5-0.2-0.7-0.2s-0.5,0.2-0.5,0.3c-1.5,2.4-4.6,4.9-9.3,4.9c-5.3,0-9.6-4-10.3-9.4
	c1.7,0,24.8,0,24.8,0c0.5,0,0.8-0.3,0.8-0.8v-2C137.75,36.6,131.35,29.8,122.05,29.8z M112.25,43.6c0.5-4.3,5.1-8.3,9.9-8.3
	c5.4,0,8.8,3.2,9.1,8.3H112.25z M169.25,29.8c-3.4,0-8.1,1.2-11.3,4.6c0-1.5,0-3,0-3c0-0.5-0.3-0.8-0.8-0.8h-4.4
	c-0.5,0-0.8,0.3-0.8,0.8v49.7c0,0.5,0.3,0.8,0.8,0.8h4.4c0.5,0,0.8-0.3,0.8-0.8c0,0,0-18.4,0-21.9c3.3,3.4,7.9,4.6,11.3,4.6
	c10.1,0,17.2-7.2,17.2-17S179.25,29.8,169.25,29.8z M169.25,58.2c-6.6,0-11.6-4.9-11.6-11.5s4.9-11.5,11.6-11.5
	c6.4,0,10.9,4.7,10.9,11.5C180.15,53.6,175.65,58.2,169.25,58.2z M352.85,29.8c-3.7,0-7.4,1.7-9.7,4.3c0-0.9-0.1-1.9-0.2-2.9
	c0-0.5-0.5-0.7-0.8-0.7h-4.5c-0.2,0-0.5,0.1-0.5,0.2c-0.1,0.1-0.2,0.3-0.2,0.5l0.1,1.2c0.1,2,0.2,4.2,0.2,5.5V62
	c0,0.5,0.3,0.8,0.8,0.8h4.4c0.5,0,0.8-0.3,0.8-0.8V46.2c0-10.9,8.3-11,8.6-11c5.4,0,7.6,2.7,7.6,9.8v17c0,0.5,0.3,0.8,0.8,0.8h4.4
	c0.5,0,0.8-0.3,0.8-0.8V42.5C365.25,34.4,360.85,29.8,352.85,29.8z M402.65,62.2c0,0.5,0.5,0.7,0.8,0.7h4.5c0.2,0,0.5-0.1,0.5-0.2
	c0.1-0.1,0.2-0.3,0.2-0.5l-0.1-1.2c-0.1-2-0.2-4.2-0.2-5.5V31.4c0-0.5-0.3-0.8-0.8-0.8h-4.4c-0.5,0-0.8,0.3-0.8,0.8v15.8
	c0,10.9-8.3,11-8.6,11c-5.4,0-7.6-2.7-7.6-9.8v-17c0-0.5-0.3-0.8-0.8-0.8h-4.4c-0.5,0-0.8,0.3-0.8,0.8v19.5
	c0,8.3,4.4,12.8,12.5,12.8c3.7,0,7.4-1.7,9.7-4.3C402.55,60.4,402.55,61.4,402.65,62.2z M471.35,62.2V42.7c0-8.3-4.4-12.8-12.5-12.8
	c-4.1,0-7.9,2.1-10.1,5.4c-2.4-4.4-6.6-5.4-9.9-5.4c-3.5,0-6.9,1.5-9.3,4.1c0-1.2,0-2.4,0-2.4c0-0.5-0.3-0.8-0.8-0.8h-4.7
	c-0.2,0-0.5,0.1-0.5,0.2c-0.1,0.1-0.2,0.3-0.2,0.5l0.1,1.7c0.1,1.7,0.2,3.3,0.2,4.9V62c0,0.5,0.3,0.8,0.8,0.8h4.4
	c0.5,0,0.8-0.3,0.8-0.8V46.2c0-10.7,7.1-11,7.9-11c5.1,0,6.9,2.4,6.9,8.8v18c0,0.5,0.3,0.8,0.8,0.8h4.4c0.5,0,0.8-0.3,0.8-0.8V45.7
	c0-3.1,0.8-10.5,7.9-10.5c5.1,0,6.9,2.4,6.9,8.8v18c0,0.5,0.3,0.8,0.8,0.8h4.4C470.95,63,471.35,62.7,471.35,62.2z M521.25,46.8
	c0-9.8-7.3-17-17.2-17c-3.4,0-8.1,1.2-11.3,4.6c0-3.5,0-21.9,0-21.9c0-0.5-0.3-0.8-0.8-0.8h-4.4c-0.5,0-0.8,0.3-0.8,0.8v49.7
	c0,0.5,0.3,0.8,0.8,0.8h4.4c0.5,0,0.8-0.3,0.8-0.8c0,0,0-1.5,0-3c3.3,3.4,7.9,4.6,11.3,4.6C514.05,63.8,521.25,56.6,521.25,46.8z
	 M504.05,58.2c-6.6,0-11.6-4.9-11.6-11.5s4.9-11.5,11.6-11.5c6.4,0,10.9,4.7,10.9,11.5C514.85,53.6,510.45,58.2,504.05,58.2z
	 M558.05,53.1c-0.2-0.1-0.5-0.2-0.7-0.2s-0.5,0.2-0.5,0.3c-1.5,2.4-4.7,4.9-9.3,4.9c-5.3,0-9.6-4-10.3-9.4c1.7,0,24.8,0,24.8,0
	c0.5,0,0.8-0.3,0.8-0.8v-2c0-9.5-6.4-16.1-15.5-16.2c-9.4,0-16.4,7.3-16.4,17s7.2,17,16.7,17c5.6,0,10.3-2.3,13.9-6.9
	c0.2-0.3,0.2-0.9-0.1-1.1L558.05,53.1z M547.25,35.4c5.4,0,8.8,3.2,9.1,8.3h-19.1C537.65,39.3,542.35,35.4,547.25,35.4z M577.45,41
	v21.2c0,0.5,0.3,0.8,0.8,0.8h4.4c0.5,0,0.8-0.3,0.8-0.8V44.9c0-3.7,2.7-9.1,8.7-9.1c1,0,1.7,0.1,2.2,0.3c0.2,0.1,0.5,0.1,0.7,0
	s0.3-0.3,0.5-0.5l0.9-4.3c0.1-0.5-0.2-0.8-0.5-1c-1-0.3-2.1-0.5-3.4-0.5c-4.4,0-7.4,2-9.3,4.4c0-1.5,0-2.9,0-2.9
	c0-0.5-0.3-0.8-0.8-0.8h-4.3c-0.2,0-0.5,0.1-0.5,0.2c-0.1,0.1-0.2,0.3-0.2,0.5l0.1,3.9V41C577.55,41,577.45,41,577.45,41z"/>
<path class="st0" d="M593.95,61.7h0.8v-2.2h0.9l1.5,2.2h0.9l-1.5-2.3c0.8-0.1,1.3-0.5,1.3-1.5s-0.5-1.5-1.7-1.5h-2v5.2L593.95,61.7
	L593.95,61.7z M594.75,57.2h1c0.5,0,1.1,0.1,1.1,0.8c0,0.8-0.7,0.9-1.3,0.9h-0.8V57.2z M591.15,59.2c0,2.5,2,4.4,4.4,4.4
	s4.4-1.9,4.4-4.4s-2-4.4-4.4-4.4S591.15,56.6,591.15,59.2z M591.95,59.2c0-2.1,1.5-3.7,3.7-3.7c2,0,3.7,1.7,3.7,3.7
	s-1.5,3.7-3.7,3.7C593.55,62.9,591.95,61.3,591.95,59.2z"/>
<path class="st0" d="M264.25,0c-26.8,0-48.5,21.9-48.5,48.7c0,26.9,21.7,48.7,48.5,48.7s48.5-21.9,48.5-48.7
	C312.65,21.8,291.05,0,264.25,0z M278.95,56.4l-13.5,26.3c0,0-0.5,1-1.5,1s-1.3-1-1.3-1s-13.3-25.9-13.5-26.3
	c-0.2-0.5-0.2-1.3,0.2-2.1c0.5-0.9,1.7-1,1.7-1s25.5,0,26.5,0s1.5,0.3,1.7,1.1C279.65,55.4,278.95,56.4,278.95,56.4z M279.25,43
	c-0.3,0.8-0.8,1.1-1.7,1.1c-1,0-26.5,0-26.5,0s-1.1,0-1.7-1c-0.5-0.8-0.3-1.7-0.2-2.1c0.2-0.5,13.5-26.3,13.5-26.3s0.3-1,1.3-1
	c0.9,0,1.5,1,1.5,1l13.5,26.3C278.95,41,279.65,42.1,279.25,43z"/>
</svg>
