<?xml version="1.0" encoding="utf-8"?>
<!-- Generator: Adobe Illustrator 19.2.1, SVG Export Plug-In . SVG Version: 6.00 Build 0)  -->
<svg version="1.1" id="layer" xmlns="http://www.w3.org/2000/svg" xmlns:xlink="http://www.w3.org/1999/xlink" x="0px" y="0px"
	 viewBox="0 0 652 652" style="enable-background:new 0 0 652 652;" xml:space="preserve">
<style type="text/css">
	.st0{fill:#133156;}
</style>
<path class="st0" d="M38.4,317.6l-4.4-1.1c-4.2-1-5.4-1.9-5.4-4.1c0-3,3.5-3.7,5.6-3.7c2.7,0,4.6,1.2,5.9,3.7
	c0.1,0.2,0.3,0.3,0.5,0.5c0.2,0.1,0.5,0,0.7-0.1l3.9-2.5c0.3-0.2,0.5-0.7,0.3-1c-1.9-3.9-5.9-5.9-11-5.9c-6.3-0.1-12.5,3-12.5,9.9
	c0,3.1,1.5,7.2,8.5,8.8l4.2,1c3.3,0.8,5.3,1.7,5.3,4.2c0,3-3.2,4.3-6.5,4.3c-3.9,0-6.2-2.3-7.4-4.2c-0.1-0.2-0.3-0.3-0.5-0.3
	c-0.2,0-0.5,0-0.7,0.1l-3.7,2.5c-0.3,0.2-0.5,0.8-0.2,1.1c2.9,4.2,7.1,6.4,12.6,6.4c5.9,0,12.8-2.7,12.8-10.3
	C46.6,322.3,43.3,318.8,38.4,317.6z M66.4,284.9H62c-0.5,0-0.8,0.3-0.8,0.8v49.7c0,0.5,0.3,0.8,0.8,0.8h4.4c0.5,0,0.8-0.3,0.8-0.8
	v-49.6C67.1,285.4,66.8,284.9,66.4,284.9z M97,303.1c-9.4,0-16.4,7.3-16.4,17s7.2,17,16.7,17c5.6,0,10.3-2.3,13.9-6.9
	c0.2-0.3,0.2-0.9-0.1-1.1l-3.4-2.7c0-0.2-0.2-0.2-0.5-0.2c-0.2,0-0.5,0.2-0.5,0.3c-1.5,2.4-4.7,4.9-9.3,4.9c-5.3,0-9.6-4-10.3-9.4
	c1.7,0,24.8,0,24.8,0c0.5,0,0.8-0.3,0.8-0.8v-2C112.7,309.9,106.3,303.1,97,303.1z M87.2,316.9c0.5-4.3,5.1-8.3,9.9-8.3
	c5.4,0,8.8,3.2,9.1,8.3H87.2z M142.9,303.1c-9.4,0-16.4,7.3-16.4,17s7.2,17,16.7,17c5.6,0,10.3-2.3,13.9-6.9
	c0.2-0.3,0.2-0.9-0.1-1.1l-3.4-2.7c-0.2-0.1-0.5-0.2-0.7-0.2s-0.5,0.2-0.5,0.3c-1.5,2.4-4.6,4.9-9.3,4.9c-5.3,0-9.6-4-10.3-9.4
	c1.7,0,24.8,0,24.8,0c0.5,0,0.8-0.3,0.8-0.8v-2C158.6,309.9,152.2,303.1,142.9,303.1z M133.1,316.9c0.5-4.3,5.1-8.3,9.9-8.3
	c5.4,0,8.8,3.2,9.1,8.3H133.1z M190.1,303.1c-3.4,0-8.1,1.2-11.3,4.6c0-1.5,0-3,0-3c0-0.5-0.3-0.8-0.8-0.8h-4.4
	c-0.5,0-0.8,0.3-0.8,0.8v49.7c0,0.5,0.3,0.8,0.8,0.8h4.4c0.5,0,0.8-0.3,0.8-0.8c0,0,0-18.4,0-21.9c3.3,3.4,7.9,4.6,11.3,4.6
	c10.1,0,17.2-7.2,17.2-17S200.1,303.1,190.1,303.1z M190.1,331.5c-6.6,0-11.6-4.9-11.6-11.5s4.9-11.5,11.6-11.5
	c6.4,0,10.9,4.7,10.9,11.5C201,326.9,196.5,331.5,190.1,331.5z M373.7,303.1c-3.7,0-7.4,1.7-9.7,4.3c0-0.9-0.1-1.9-0.2-2.9
	c0-0.5-0.5-0.7-0.8-0.7h-4.5c-0.2,0-0.5,0.1-0.5,0.2c-0.1,0.1-0.2,0.3-0.2,0.5l0.1,1.2c0.1,2,0.2,4.2,0.2,5.5v24.1
	c0,0.5,0.3,0.8,0.8,0.8h4.4c0.5,0,0.8-0.3,0.8-0.8v-15.8c0-10.9,8.3-11,8.6-11c5.4,0,7.6,2.7,7.6,9.8v17c0,0.5,0.3,0.8,0.8,0.8h4.4
	c0.5,0,0.8-0.3,0.8-0.8v-19.5C386.1,307.7,381.7,303.1,373.7,303.1z M423.5,335.5c0,0.5,0.5,0.7,0.8,0.7h4.5c0.2,0,0.5-0.1,0.5-0.2
	c0.1-0.1,0.2-0.3,0.2-0.5l-0.1-1.2c-0.1-2-0.2-4.2-0.2-5.5v-24.1c0-0.5-0.3-0.8-0.8-0.8H424c-0.5,0-0.8,0.3-0.8,0.8v15.8
	c0,10.9-8.3,11-8.6,11c-5.4,0-7.6-2.7-7.6-9.8v-17c0-0.5-0.3-0.8-0.8-0.8h-4.4c-0.5,0-0.8,0.3-0.8,0.8v19.5
	c0,8.3,4.4,12.8,12.5,12.8c3.7,0,7.4-1.7,9.7-4.3C423.4,333.7,423.4,334.7,423.5,335.5z M492.2,335.5v-19.5
	c0-8.3-4.4-12.8-12.5-12.8c-4.1,0-7.9,2.1-10.1,5.4c-2.4-4.4-6.6-5.4-9.9-5.4c-3.5,0-6.9,1.5-9.3,4.1c0-1.2,0-2.4,0-2.4
	c0-0.5-0.3-0.8-0.8-0.8h-4.7c-0.2,0-0.5,0.1-0.5,0.2c-0.1,0.1-0.2,0.3-0.2,0.5l0.1,1.7c0.1,1.7,0.2,3.3,0.2,4.9v23.9
	c0,0.5,0.3,0.8,0.8,0.8h4.4c0.5,0,0.8-0.3,0.8-0.8v-15.8c0-10.7,7.1-11,7.9-11c5.1,0,6.9,2.4,6.9,8.8v18c0,0.5,0.3,0.8,0.8,0.8h4.4
	c0.5,0,0.8-0.3,0.8-0.8V319c0-3.1,0.8-10.5,7.9-10.5c5.1,0,6.9,2.4,6.9,8.8v18c0,0.5,0.3,0.8,0.8,0.8h4.4
	C491.8,336.3,492.2,336,492.2,335.5z M542.1,320.1c0-9.8-7.3-17-17.2-17c-3.4,0-8.1,1.2-11.3,4.6c0-3.5,0-21.9,0-21.9
	c0-0.5-0.3-0.8-0.8-0.8h-4.4c-0.5,0-0.8,0.3-0.8,0.8v49.7c0,0.5,0.3,0.8,0.8,0.8h4.4c0.5,0,0.8-0.3,0.8-0.8c0,0,0-1.5,0-3
	c3.3,3.4,7.9,4.6,11.3,4.6C534.9,337.1,542.1,329.9,542.1,320.1z M524.9,331.5c-6.6,0-11.6-4.9-11.6-11.5s4.9-11.5,11.6-11.5
	c6.4,0,10.9,4.7,10.9,11.5C535.7,326.9,531.3,331.5,524.9,331.5z M578.9,326.4c-0.2-0.1-0.5-0.2-0.7-0.2c-0.2,0-0.5,0.2-0.5,0.3
	c-1.5,2.4-4.7,4.9-9.3,4.9c-5.3,0-9.6-4-10.3-9.4c1.7,0,24.8,0,24.8,0c0.5,0,0.8-0.3,0.8-0.8v-2c0-9.5-6.4-16.1-15.5-16.2
	c-9.4,0-16.4,7.3-16.4,17s7.2,17,16.7,17c5.6,0,10.3-2.3,13.9-6.9c0.2-0.3,0.2-0.9-0.1-1.1L578.9,326.4z M568.1,308.7
	c5.4,0,8.8,3.2,9.1,8.3h-19.1C558.5,312.6,563.2,308.7,568.1,308.7z M598.3,314.3v21.2c0,0.5,0.3,0.8,0.8,0.8h4.4
	c0.5,0,0.8-0.3,0.8-0.8v-17.3c0-3.7,2.7-9.1,8.7-9.1c1,0,1.7,0.1,2.2,0.3c0.2,0.1,0.5,0.1,0.7,0c0.2-0.1,0.3-0.3,0.5-0.5l0.9-4.3
	c0.1-0.5-0.2-0.8-0.5-1c-1-0.3-2.1-0.5-3.4-0.5c-4.4,0-7.4,2-9.3,4.4c0-1.5,0-2.9,0-2.9c0-0.5-0.3-0.8-0.8-0.8h-4.3
	c-0.2,0-0.5,0.1-0.5,0.2c-0.1,0.1-0.2,0.3-0.2,0.5l0.1,3.9V314.3z"/>
<path class="st0" d="M614.8,335h0.8v-2.2h0.9l1.5,2.2h0.9l-1.5-2.3c0.8-0.1,1.3-0.5,1.3-1.5s-0.5-1.5-1.7-1.5H615v5.2L614.8,335
	L614.8,335z M615.6,330.5h1c0.5,0,1.1,0.1,1.1,0.8c0,0.8-0.7,0.9-1.3,0.9h-0.8V330.5z M612,332.5c0,2.5,2,4.4,4.4,4.4
	c2.4,0,4.4-1.9,4.4-4.4s-2-4.4-4.4-4.4C614,328.1,612,329.9,612,332.5z M612.8,332.5c0-2.1,1.5-3.7,3.7-3.7c2,0,3.7,1.7,3.7,3.7
	s-1.5,3.7-3.7,3.7C614.4,336.2,612.8,334.6,612.8,332.5z"/>
<path class="st0" d="M285.1,273.3c-26.8,0-48.5,21.9-48.5,48.7c0,26.9,21.7,48.7,48.5,48.7s48.5-21.9,48.5-48.7
	C333.5,295.1,311.9,273.3,285.1,273.3z M299.8,329.7l-13.5,26.3c0,0-0.5,1-1.5,1c-1,0-1.3-1-1.3-1s-13.3-25.9-13.5-26.3
	c-0.2-0.5-0.2-1.3,0.2-2.1c0.5-0.9,1.7-1,1.7-1s25.5,0,26.5,0c1,0,1.5,0.3,1.7,1.1C300.5,328.7,299.8,329.7,299.8,329.7z
	 M300.1,316.3c-0.3,0.8-0.8,1.1-1.7,1.1c-1,0-26.5,0-26.5,0s-1.1,0-1.7-1c-0.5-0.8-0.3-1.7-0.2-2.1c0.2-0.5,13.5-26.3,13.5-26.3
	s0.3-1,1.3-1c0.9,0,1.5,1,1.5,1l13.5,26.3C299.8,314.3,300.5,315.4,300.1,316.3z"/>
</svg>
