<?xml version="1.0" encoding="utf-8"?>
<!-- Generator: Adobe Illustrator 27.2.0, SVG Export Plug-In . SVG Version: 6.00 Build 0)  -->
<svg version="1.1" id="Layer_1" xmlns="http://www.w3.org/2000/svg" xmlns:xlink="http://www.w3.org/1999/xlink" x="0px" y="0px"
	 viewBox="0 0 841.89 595.28" style="enable-background:new 0 0 841.89 595.28;" xml:space="preserve">
<style type="text/css">
	.st0{fill:#7AC143;}
	.st1{fill:#FFFFFF;}
	.st2{fill:#004990;}
	.st3{display:none;fill:#7AC143;}
</style>
<path class="st0" d="M224.73,314.3c0,0-14.29,0-18.22,0c0-3.93,0-18.23,0-18.23c0-1.41-1.15-2.56-2.56-2.56h-20.79
	c-0.01,0-0.02,0-0.03,0c-0.16,0-0.31,0.02-0.47,0.05c-0.08,0.02-0.15,0.04-0.22,0.07c-0.08,0.03-0.17,0.04-0.25,0.08
	c-0.09,0.03-0.16,0.08-0.24,0.13c-0.06,0.04-0.13,0.07-0.2,0.11c-0.13,0.09-0.26,0.19-0.38,0.31c0,0-0.01,0.01-0.02,0.01l-7.58,7.57
	c0,0,0,0.01-0.01,0.01c-0.12,0.12-0.22,0.24-0.31,0.38c-0.05,0.07-0.08,0.14-0.12,0.21c-0.04,0.07-0.09,0.15-0.12,0.23
	c-0.04,0.09-0.06,0.18-0.09,0.28c-0.02,0.07-0.05,0.13-0.06,0.2c-0.03,0.17-0.05,0.33-0.05,0.5v10.65c-5.13,0-10.66,0-10.66,0
	c-0.17,0-0.34,0.02-0.5,0.05c-0.08,0.01-0.15,0.04-0.22,0.06c-0.08,0.03-0.17,0.05-0.25,0.08c-0.09,0.04-0.17,0.09-0.25,0.13
	c-0.06,0.03-0.13,0.06-0.19,0.1c-0.14,0.09-0.27,0.2-0.39,0.32l-7.13,7.13c-0.71,0.45-1.19,1.25-1.19,2.15v20.96
	c0,1.41,1.15,2.56,2.56,2.56c0.22,0,0.43-0.04,0.63-0.09h17.32c0.04,0.05,0.08,0.1,0.12,0.15c0.05,0.05,0.1,0.08,0.15,0.13v17.46
	c-0.03,0.16-0.05,0.32-0.05,0.5c0,0.55,0.18,1.06,0.48,1.48c0.46,0.69,1.24,1.14,2.12,1.14c0.19,0,0.37-0.02,0.55-0.06h20.34
	c0.88,0,1.66-0.45,2.12-1.13l7.2-7.2c0.6-0.6,0.83-1.41,0.71-2.19V347.8h10.55c0.21,0.01,0.43-0.01,0.63-0.05
	c0.13-0.02,0.25-0.06,0.36-0.11c0.02-0.01,0.05-0.01,0.07-0.02c0.4-0.16,0.75-0.42,1.02-0.75l7.39-7.39
	c0.53-0.53,0.77-1.22,0.74-1.91v-20.71C227.29,315.44,226.14,314.3,224.73,314.3z"/>
<polygon class="st1" points="224.73,337.64 203.96,337.64 203.96,358.42 183.17,358.42 183.17,337.64 162.38,337.64 162.38,316.86 
	183.17,316.86 183.17,296.07 203.96,296.07 203.96,316.86 224.73,316.86 "/>
<g>
	<g>
		<g>
			<path class="st2" d="M306.75,259.9c-7.16-4.68-16.71-0.64-25.95,3.27c-7.78,3.3-15.15,6.41-20.64,4.28
				c-13.33-5.15-22.15-5.59-26.25-1.29c-1.55,1.62-2.31,3.95-2.31,6.7c0,2.67,0.72,7.22,2.17,10.49c0,0.01,0,0.02,0,0.03v-0.01
				c0,0.01,0.01,0.02,0.01,0.03c0.09,0.21,0.34,0.31,0.54,0.22c0.2-0.08,0.31-0.32,0.23-0.53c-1.8-4.85-1.46-10.46,0.94-12.83
				c2.65-2.64,9.19-4.51,25.3,1.53c6.84,2.56,14.24-1.03,21.4-4.5c7.99-3.86,15.52-7.51,21.82-2.77c7.28,5.49,6.74,10.35,2.9,18.54
				c-0.09,0.19-0.03,0.41,0.12,0.53c0.17,0.12,0.38,0.1,0.53-0.03l0.29-0.27c0.04-0.04,0.06-0.07,0.08-0.12
				C313.24,272.73,314.9,265.21,306.75,259.9"/>
			<path class="st2" d="M347.17,256.76c-0.01,0.03-0.01,0.06-0.01,0.1c0,0.19,0.11,0.36,0.29,0.4l0,0l0.69,0.19
				c0.08,0,0.15,0.01,0.21,0.01c16.5,4.36,38.35,3.15,44.74,2.65c9.31-0.71,20.64-0.11,26.57,0.82c0.21,0.04,0.41-0.12,0.43-0.35
				c0-0.01,0-0.03,0-0.05c0.01-0.21-0.13-0.39-0.32-0.42c-5.17-0.8-22.78-3.39-32.62-2.63c-8.96,0.7-21.26,0.44-38.67-0.83
				c-0.28-0.07-0.59-0.11-0.87-0.19v-0.01C347.42,256.41,347.21,256.54,347.17,256.76"/>
			<path class="st2" d="M667.09,270.87c-1.57-1.55-3.93-1.2-5.84-0.92c-1.18,0.17-2.29,0.32-2.74-0.03
				c-6.33-5.16-9.14-3.27-13.02-0.66c-0.49,0.33-1.01,0.68-1.55,1.01c-0.74,0.33-1.5,0.69-2.29,1.07c-1.49,0.7-3.17,1.45-5,2.14
				c-2.56,0.62-5.67,0.9-9.64,0.55c-6.61-0.6-14.79-4.51-23.46-8.64c-12.63-6.01-26.95-12.83-41.05-12.02
				c-23.37,1.35-31.63-0.78-55.18-14.3c-30.37-17.42-47.01-23.01-71.51-12.51c-0.4,0.17-0.74,0.28-1.13,0.44
				c-1.33,0.48-2.65,0.94-4,1.52c-0.74,0.32-1.37,0.53-2.08,0.82c-17.92,6.12-26.86,2.09-45.43-6.38l-14.46-6.43
				c-30.71-13.02-39.99-7.82-47.19,7.09c-4.57,9.49-9.01,15.62-13.46,18.59c-2.37-5.74-8.45-9.94-13.24-11.1
				c-5.11-1.25-8.15-2.8-11.08-4.29c-1.75-0.89-3.47-1.77-5.56-2.53c-1.43-0.93-3.1-1.75-5.1-2.42c-8.57-2.86-18.37-1.44-24.98,3.63
				c-5.55,4.24-8.35,10.62-7.93,17.93c0.59,10.04,7.1,16.32,7.17,16.38c0.16,0.15,0.41,0.16,0.56,0.01
				c0.16-0.13,0.17-0.39,0.04-0.56c-2.86-3.68-4.86-7.38-5.34-13.44c-0.51-6.36,1.42-11.73,5.56-15.55
				c5.04-4.64,13.29-6.84,21.03-5.58c9.59,1.55,12.07,8.65,14.45,15.52c2.65,7.61,5.39,15.49,18.09,14.56
				c7.18-0.52,13.55,3.08,16.21,9.17c2.76,6.33,0.75,13.53-5.38,19.28c-0.16,0.15-0.18,0.41-0.02,0.57
				c0.15,0.17,0.39,0.18,0.57,0.04l2.44-2.08c5.72-6.37,7.4-14.29,4.42-20.71c-2.69-5.79-8.59-9.11-15.79-8.89
				c-13.01,0.39-14.87-5.96-17.04-13.32c-0.97-3.31-2-6.83-4.19-9.92c2.69,1.75,5.63,3.5,10.64,4.72c4.15,1.02,9.6,4.76,12.19,9.84
				c-0.56,0.24-1.12,0.45-1.68,0.58c-3.23,0.81-6.54-0.08-10.12-2.62c-0.3-0.21-0.63-0.41-0.9-0.61l0,0
				c-0.18-0.14-0.45-0.09-0.58,0.09c-0.05,0.07-0.07,0.16-0.07,0.24c0,0.13,0.05,0.25,0.17,0.33l0,0l0.62,0.46
				c0.1,0.06,0.19,0.08,0.27,0.15c3.06,2.12,7.36,4.39,12.2,3.18c5.88-1.47,11.33-7.57,16.68-18.67c6.71-13.9,12.56-18.35,43.9-6.13
				c6.62,2.58,12.01,4.97,16.77,7.07c17.54,7.76,25.22,11.03,45.97,2.54c1.82-0.63,3.79-1.39,5.81-2.23
				c22.17-7.97,40.86-1.1,70.43,15.86c17.91,10.28,28.9,10.87,42.83,11.62c4.75,0.27,9.65,0.53,15.36,1.19
				c15.66,1.81,26.79,7.23,36.6,12.02c0.02,0.01,0.04,0.02,0.07,0.02c-26.27-8.91-38.23-6.53-48.89-4.4
				c-6.74,1.35-12.56,2.52-21.08,0.6c-36.18-8.16-50.02-5.6-58.15-4.15l0.02-0.75c2.06-2.42,2.91-5.79,2.47-9.86
				c-0.31-2.83-1.25-5.98-2.8-9.34c-0.07-0.15-0.22-0.23-0.38-0.21c-0.04,0-0.08,0.01-0.11,0.02c-0.15,0.07-0.23,0.22-0.21,0.38
				c0,0.05,0.01,0.08,0.03,0.11c0.98,2.13,1.52,4.18,1.74,6.12c0.74,6.69-2.6,12.06-6.88,14.67c-0.11,0.07-0.18,0.21-0.17,0.35l0,0
				c0.02,0.15,0.11,0.26,0.25,0.31c1.55,0.54,2.97,2.11,4.02,4.42c0.65,1.49,1.18,3.34,1.41,5.44c0.33,3.14,0.04,6.81-1.5,10.51
				c-0.02,0.05-0.03,0.12-0.03,0.18c0.01,0.11,0.08,0.22,0.19,0.28c0.16,0.1,0.37,0.05,0.47-0.1c0.02-0.03,0.04-0.07,0.06-0.1v0.01
				v-0.01c2.72-3.63,3.65-9.39,3.15-13.93c-0.1-0.91-0.26-1.78-0.46-2.55c-0.29-1.07-0.67-1.98-1.12-2.74l0,0.01l0.96-0.17
				l0.04-0.01c8.14-1.51,20.45-3.79,57.52,3.13c8.48,1.58,14.36,0.87,21.17,0.04c11.81-1.42,26.52-3.2,62.42,7.84c0,0,0.01,0,0.02,0
				c2.44,0.76,4.88,1.33,7.38,1.55c6.76,0.63,11.54-0.5,15.41-1.96c2.93-0.73,5.17-1.88,7.01-3.02c4.12-1.86,7.46-2.54,12.74,1.75
				c0.77,0.63,2.14,0.43,3.72,0.18c2.02-0.32,4.32-0.66,5.73,0.62c1.78,1.31,1.1,6.78,0.94,9.62c-0.01,0.23,0.16,0.43,0.4,0.45
				c0.22,0.01,0.41-0.16,0.43-0.4c0-0.04,0-0.08,0-0.11c0-0.01,0.01-0.01,0.01-0.01c0.13-1.18,0.67-6.09,0.67-7.04
				C668.7,273.69,668.16,271.91,667.09,270.87"/>
		</g>
	</g>
</g>
<polygon class="st2" points="253.25,307.27 234.4,307.27 234.4,292.11 292.58,292.11 292.58,307.27 273.69,307.27 273.69,368.77 
	253.25,368.77 "/>
<polygon class="st2" points="298.39,292.11 352.43,292.11 352.43,306.61 318.81,306.61 318.81,322.43 350.56,322.43 350.56,336.91 
	318.81,336.91 318.81,354.27 353.64,354.27 353.64,368.77 298.39,368.77 "/>
<polygon class="st2" points="361.11,292.11 393.27,292.11 409.53,343.07 409.75,343.07 426.77,292.11 457.75,292.11 457.75,368.77 
	437.76,368.77 438.09,309.9 437.87,309.9 418.31,368.77 399.54,368.77 380.87,309.9 380.65,309.9 381.1,368.77 361.11,368.77 "/>
<path class="st2" d="M468.91,292.11h24.36c23.39,0,34.37,7.91,34.37,25.14c0,15.49-11.31,24.72-30.41,24.72h-7.91v26.8h-20.42
	V292.11z M489.32,327.47h5.27c7.02,0,12.62-2.52,12.62-10.54c0-7.8-5.6-10.32-12.62-10.32h-5.27V327.47z"/>
<path class="st2" d="M601,339.66c0,20.98-13.61,30.42-33.6,30.42c-19.99,0-33.6-9.44-33.6-30.42v-47.55h20.43v44.14
	c0,10.11,2.74,18.67,13.17,18.67c10.44,0,13.17-8.56,13.17-18.67v-44.14H601V339.66z"/>
<path class="st2" d="M609.24,292.11h36.47c13.61,0,24.7,6.15,24.7,19.33c0,10.22-4.83,17.03-14.71,19.32v0.22
	c6.59,1.76,7.04,7.58,10.87,16.92l7.48,20.87h-21.31l-4.39-13.85c-4.19-13.17-6.81-16.47-14.39-16.47h-4.29v30.31h-20.42V292.11z
	 M629.66,323.96h5.39c6.6,0,14.93-0.22,14.93-8.9c0-7.14-7.13-8.45-14.93-8.45h-5.39V323.96z"/>
<g>
	<path class="st2" d="M173.61,380.36h4.16c3.25,0,5.96,1.14,5.96,4.75c0,3.53-2.75,4.78-5.62,4.78h-2.23v6.34h-2.27V380.36z
		 M175.88,387.88h2.25c1.41,0,3.18-0.71,3.18-2.8c0-2-2.09-2.73-3.5-2.73h-1.93V387.88z"/>
	<path class="st2" d="M185.88,380.36h3.89c3.14,0,6.16,0.5,6.16,4.3c0,1.93-1.43,3.3-3.27,3.62v0.05c0.71,0.27,1.05,0.61,1.55,1.59
		l3,6.32h-2.59l-2.43-5.5c-0.7-1.55-1.46-1.55-2.66-1.55h-1.36v7.05h-2.27V380.36z M188.15,387.18h1.93c2.16,0,3.43-0.95,3.43-2.48
		c0-1.43-1.09-2.34-3.18-2.34h-2.18V387.18z"/>
	<path class="st2" d="M199.5,380.36h8.89v2h-6.62V387h6.03v2h-6.03v5.23h6.62v2h-8.89V380.36z"/>
	<path class="st2" d="M218.69,382.74c-1.16-0.46-1.8-0.66-2.98-0.66c-1.27,0-2.77,0.46-2.77,2.12c0,3.05,6.82,2.34,6.82,7.57
		c0,3.39-2.62,4.73-5.8,4.73c-1.11,0-2.21-0.32-3.25-0.66l0.23-2.12c0.77,0.32,2.14,0.77,3.3,0.77c1.3,0,3.12-0.73,3.12-2.59
		c0-3.55-6.82-2.57-6.82-7.5c0-2.82,2.23-4.32,5.09-4.32c1.05,0,2.3,0.18,3.39,0.57L218.69,382.74z"/>
	<path class="st2" d="M229.59,382.74c-1.16-0.46-1.8-0.66-2.98-0.66c-1.27,0-2.77,0.46-2.77,2.12c0,3.05,6.82,2.34,6.82,7.57
		c0,3.39-2.62,4.73-5.8,4.73c-1.11,0-2.21-0.32-3.25-0.66l0.23-2.12c0.77,0.32,2.14,0.77,3.3,0.77c1.3,0,3.12-0.73,3.12-2.59
		c0-3.55-6.82-2.57-6.82-7.5c0-2.82,2.23-4.32,5.09-4.32c1.05,0,2.3,0.18,3.39,0.57L229.59,382.74z"/>
	<path class="st2" d="M245.42,389.66c0,4.46-2.25,6.84-6.16,6.84c-3.91,0-6.16-2.39-6.16-6.84v-9.3h2.27v9.01
		c0,3.05,0.96,5.14,3.89,5.14c2.93,0,3.89-2.09,3.89-5.14v-9.01h2.27V389.66z"/>
	<path class="st2" d="M249.01,380.36h3.89c3.14,0,6.16,0.5,6.16,4.3c0,1.93-1.43,3.3-3.27,3.62v0.05c0.7,0.27,1.05,0.61,1.55,1.59
		l3,6.32h-2.59l-2.43-5.5c-0.7-1.55-1.46-1.55-2.66-1.55h-1.36v7.05h-2.27V380.36z M251.28,387.18h1.93c2.16,0,3.43-0.95,3.43-2.48
		c0-1.43-1.09-2.34-3.18-2.34h-2.18V387.18z"/>
	<path class="st2" d="M262.63,380.36h8.89v2h-6.62V387h6.03v2h-6.03v5.23h6.62v2h-8.89V380.36z"/>
	<path class="st2" d="M280.89,380.36h3.89c3.14,0,6.16,0.5,6.16,4.3c0,1.93-1.43,3.3-3.27,3.62v0.05c0.7,0.27,1.05,0.61,1.55,1.59
		l3,6.32h-2.59l-2.43-5.5c-0.7-1.55-1.45-1.55-2.66-1.55h-1.36v7.05h-2.27V380.36z M283.17,387.18h1.93c2.16,0,3.43-0.95,3.43-2.48
		c0-1.43-1.09-2.34-3.18-2.34h-2.18V387.18z"/>
	<path class="st2" d="M294.51,380.36h8.89v2h-6.62V387h6.03v2h-6.03v5.23h6.62v2h-8.89V380.36z"/>
	<path class="st2" d="M306.36,380.36h2.27v13.87h6.64v2h-8.92V380.36z"/>
	<path class="st2" d="M317.41,380.36h2.27v15.87h-2.27V380.36z"/>
	<path class="st2" d="M323.41,380.36h8.89v2h-6.62V387h6.03v2h-6.03v5.23h6.62v2h-8.89V380.36z"/>
	<path class="st2" d="M342.9,396.23h-2.84l-5.98-15.87h2.55l4.89,13.87h0.05l5.03-13.87h2.39L342.9,396.23z"/>
	<path class="st2" d="M350.94,380.36h2.27v15.87h-2.27V380.36z"/>
	<path class="st2" d="M356.88,380.36h3.09l7,12.78h0.05v-12.78h2.27v15.87h-2.91l-7.19-13.05h-0.05v13.05h-2.27V380.36z"/>
	<path class="st2" d="M384.97,383.18c-1.11-0.73-2.32-1.09-4.37-1.09c-3.66,0-6.09,2.66-6.09,6.21c0,3.73,2.68,6.21,5.98,6.21
		c1.57,0,1.98-0.16,2.55-0.27v-4.82h-3.34v-1.87h5.62v8.26c-0.86,0.29-2.37,0.7-4.84,0.7c-5.03,0-8.37-3.23-8.37-8.28
		c0-4.89,3.55-8.14,8.39-8.14c2.32,0,3.34,0.34,4.66,0.8L384.97,383.18z"/>
	<path class="st2" d="M395.23,380.36h3.75l4.98,13.19l4.89-13.19h3.75v15.87h-2.27v-13.74h-0.05l-5.25,13.74h-2.23l-5.25-13.74
		h-0.05v13.74h-2.27V380.36z"/>
	<path class="st2" d="M421.43,380.36h2.39l6.71,15.87h-2.48l-1.62-4h-7.78l-1.61,4h-2.39L421.43,380.36z M422.55,382.49l-3.16,7.87
		h6.32L422.55,382.49z"/>
	<path class="st2" d="M434.12,382.36h-4.94v-2h12.14v2h-4.94v13.87h-2.27V382.36z"/>
	<path class="st2" d="M447.42,382.36h-4.94v-2h12.14v2h-4.94v13.87h-2.27V382.36z"/>
	<path class="st2" d="M456.59,380.36h3.89c3.14,0,6.16,0.5,6.16,4.3c0,1.93-1.43,3.3-3.27,3.62v0.05c0.71,0.27,1.05,0.61,1.55,1.59
		l3,6.32h-2.59l-2.43-5.5c-0.71-1.55-1.46-1.55-2.66-1.55h-1.36v7.05h-2.27V380.36z M458.87,387.18h1.93c2.16,0,3.43-0.95,3.43-2.48
		c0-1.43-1.09-2.34-3.18-2.34h-2.18V387.18z"/>
	<path class="st2" d="M470.21,380.36h8.89v2h-6.62V387h6.03v2h-6.03v5.23h6.62v2h-8.89V380.36z"/>
	<path class="st2" d="M489.41,382.74c-1.16-0.46-1.8-0.66-2.98-0.66c-1.27,0-2.77,0.46-2.77,2.12c0,3.05,6.82,2.34,6.82,7.57
		c0,3.39-2.62,4.73-5.8,4.73c-1.11,0-2.21-0.32-3.25-0.66l0.23-2.12c0.77,0.32,2.14,0.77,3.3,0.77c1.3,0,3.12-0.73,3.12-2.59
		c0-3.55-6.82-2.57-6.82-7.5c0-2.82,2.23-4.32,5.09-4.32c1.05,0,2.3,0.18,3.39,0.57L489.41,382.74z"/>
	<path class="st2" d="M500.3,382.74c-1.16-0.46-1.8-0.66-2.98-0.66c-1.27,0-2.77,0.46-2.77,2.12c0,3.05,6.82,2.34,6.82,7.57
		c0,3.39-2.62,4.73-5.8,4.73c-1.11,0-2.21-0.32-3.25-0.66l0.23-2.12c0.77,0.32,2.14,0.77,3.3,0.77c1.3,0,3.12-0.73,3.12-2.59
		c0-3.55-6.82-2.57-6.82-7.5c0-2.82,2.23-4.32,5.09-4.32c1.05,0,2.3,0.18,3.39,0.57L500.3,382.74z"/>
	<path class="st2" d="M504.08,380.36h8.89v2h-6.62V387h6.03v2h-6.03v5.23h6.62v2h-8.89V380.36z"/>
	<path class="st2" d="M523.27,382.74c-1.16-0.46-1.8-0.66-2.98-0.66c-1.27,0-2.77,0.46-2.77,2.12c0,3.05,6.82,2.34,6.82,7.57
		c0,3.39-2.62,4.73-5.8,4.73c-1.11,0-2.21-0.32-3.25-0.66l0.23-2.12c0.77,0.32,2.14,0.77,3.3,0.77c1.3,0,3.12-0.73,3.12-2.59
		c0-3.55-6.82-2.57-6.82-7.5c0-2.82,2.23-4.32,5.09-4.32c1.05,0,2.3,0.18,3.39,0.57L523.27,382.74z"/>
	<path class="st2" d="M538.33,380.36h2.39l6.71,15.87h-2.48l-1.61-4h-7.78l-1.61,4h-2.39L538.33,380.36z M539.44,382.49l-3.16,7.87
		h6.32L539.44,382.49z"/>
	<path class="st2" d="M549.45,380.36h3.09l7,12.78h0.05v-12.78h2.27v15.87h-2.91l-7.19-13.05h-0.05v13.05h-2.27V380.36z"/>
	<path class="st2" d="M565.47,380.36h4.68c4.71,0,8.46,2.91,8.46,7.8c0,5.32-3.23,8.07-8.46,8.07h-4.68V380.36z M567.75,394.23h2.39
		c3.91,0,6.07-1.89,6.07-5.98c0-3.71-2.52-5.89-5.8-5.89h-2.66V394.23z"/>
	<path class="st2" d="M587.76,380.36h4.16c3.25,0,5.96,1.14,5.96,4.75c0,3.53-2.75,4.78-5.62,4.78h-2.23v6.34h-2.27V380.36z
		 M590.03,387.88h2.25c1.41,0,3.18-0.71,3.18-2.8c0-2-2.09-2.73-3.5-2.73h-1.93V387.88z"/>
	<path class="st2" d="M600.1,380.36h2.27v15.87h-2.27V380.36z"/>
	<path class="st2" d="M606.03,380.36h2.27v13.87h6.64v2h-8.91V380.36z"/>
	<path class="st2" d="M617.07,380.36h2.27v13.87h6.64v2h-8.92V380.36z"/>
	<path class="st2" d="M634.43,380.08c4.82,0,7.64,3.5,7.64,8.21c0,4.82-2.8,8.21-7.64,8.21c-4.84,0-7.64-3.39-7.64-8.21
		C626.79,383.59,629.61,380.08,634.43,380.08z M634.43,394.5c3.66,0,5.23-3.05,5.23-6.21c0-3.23-1.73-6.23-5.23-6.21
		c-3.5-0.02-5.23,2.98-5.23,6.21C629.2,391.46,630.77,394.5,634.43,394.5z"/>
	<path class="st2" d="M642.71,380.36h2.5l3.8,13.6h0.05l3.39-13.6h3.23l3.43,13.6h0.05l3.8-13.6h2.41l-4.89,15.87h-2.93l-3.46-13.87
		h-0.05l-3.48,13.87h-3.05L642.71,380.36z"/>
	<path class="st2" d="M674.54,382.74c-1.16-0.46-1.8-0.66-2.98-0.66c-1.27,0-2.77,0.46-2.77,2.12c0,3.05,6.82,2.34,6.82,7.57
		c0,3.39-2.62,4.73-5.8,4.73c-1.11,0-2.21-0.32-3.25-0.66l0.23-2.12c0.77,0.32,2.14,0.77,3.3,0.77c1.3,0,3.12-0.73,3.12-2.59
		c0-3.55-6.82-2.57-6.82-7.5c0-2.82,2.23-4.32,5.09-4.32c1.05,0,2.3,0.18,3.39,0.57L674.54,382.74z"/>
</g>
<path class="st2" d="M672.77,293.53c0-3.91,3.2-7.1,7.14-7.1c3.93,0,7.11,3.19,7.11,7.1c0,3.94-3.18,7.14-7.11,7.14
	C675.97,300.67,672.77,297.47,672.77,293.53z M685.89,293.53c0-3.46-2.52-6.16-5.98-6.16c-3.47,0-6.01,2.7-6.01,6.16
	c0,3.5,2.54,6.2,6.01,6.2C683.38,299.73,685.89,297.03,685.89,293.53z M683.47,297.51h-1.17l-2.27-3.66h-1.79v3.66h-0.98v-7.95h3.48
	c2.1,0,2.82,0.79,2.82,2.11c0,1.56-1.09,2.15-2.5,2.18L683.47,297.51z M679.73,293.08c1.13,0,2.78,0.19,2.78-1.42
	c0-1.25-1.01-1.4-1.99-1.4h-2.27v2.82H679.73z"/>
<path class="st3" d="M226.05,335.64h-20.55v20.56h-18.9v-20.56h-20.54v-18.87h20.54v-20.6h18.9v20.6h20.55V335.64z M228.1,314.7
	c-0.32-0.32-0.76-0.51-1.21-0.51l-18.87,0c0-2.89,0.01-18.86,0.01-18.86c0-0.46-0.18-0.89-0.51-1.21c-0.32-0.34-0.76-0.52-1.21-0.52
	h-20.54c-0.47,0-0.91,0.18-1.24,0.52l-30.59,30.59c-0.32,0.32-0.5,0.76-0.5,1.23v20.56c0,0.94,0.76,1.72,1.72,1.72h18.86v18.85
	c0,0.95,0.76,1.72,1.72,1.72h20.54c0.46,0,0.89-0.18,1.21-0.5l10.37-10.22c0.01-0.02,20.25-20.39,20.25-20.39
	c0.32-0.32,0.51-0.76,0.51-1.21v-20.56C228.61,315.46,228.43,315.03,228.1,314.7"/>
</svg>
