<?xml version="1.0" encoding="utf-8"?>
<!-- Generator: Adobe Illustrator 27.2.0, SVG Export Plug-In . SVG Version: 6.00 Build 0)  -->
<svg version="1.1" id="Layer_1" xmlns="http://www.w3.org/2000/svg" xmlns:xlink="http://www.w3.org/1999/xlink" x="0px" y="0px"
	 viewBox="0 0 178 20" style="enable-background:new 0 0 178 20;" xml:space="preserve">
<style type="text/css">
	.st0{fill-rule:evenodd;clip-rule:evenodd;fill:#2B2823;}
</style>
<path class="st0" d="M74.65,17.06c-3.5-1.86-6.06-4.64-7.46-6.74c-1.32,1.1-1.97,2.6-1.72,4.04c0.21,1.17,0.81,2.09,1.8,2.74
	c1.33,0.88,3.21,1.15,5.15,0.76C73.23,17.7,73.98,17.42,74.65,17.06z M66.13,18.72c-1.43-0.94-2.35-2.33-2.65-4.02
	c-0.4-2.25,0.63-4.56,2.72-6.11c-1.61-3.46-0.45-5.69,0.89-6.99c1.06-1.02,2.46-1.59,3.95-1.6h0.04c1.51,0,2.92,0.57,3.99,1.6
	c1.02,0.99,1.65,2.47,1.65,3.86v0.98H74.7c0,0-0.01-0.33,0-0.94V5.46c0-0.88-0.42-1.86-1.06-2.48c-0.69-0.67-1.61-1.03-2.59-1.03
	c-0.96,0.01-1.86,0.37-2.54,1.03c-1.45,1.4-1.44,3.27,0.01,5.72c1.24,2.09,4.01,5.28,7.96,7.09c1.17-1.09,1.88-1.98,2.41-2.98h-1.45
	v-1.95h5.1v1.95h-1.4c-0.63,1.41-1.56,2.71-2.59,3.76c0.86,0.25,1.75,0.43,2.69,0.53c0.67,0.05,0.99,0.05,0.99,0.05v1.95
	c0,0-0.32,0.01-1.01-0.04v0c-1.58-0.14-3.05-0.49-4.41-1c-1.1,0.77-2.43,1.42-3.99,1.73c-0.71,0.14-1.42,0.21-2.11,0.21
	C69,19.99,67.4,19.56,66.13,18.72z M107.31,19.71V0.2h10.57v1.94h-8.56v6.83l7.55,0.01v1.94h-7.55v6.83h8.56v1.95H107.31z
	 M153.04,0.2v19.5h10.57v-1.95h-8.55V0.2H153.04z M33.92,19.71V0.2h10.57v1.94l-8.55,0.01v6.83h7.55v1.94l-7.55,0.01v8.78H33.92z
	 M0,0.2v1.95h5.54v17.55h2.01V2.15h5.54V0.2H0z M30.69,12.91c0,3.92-3.28,7.09-7.32,7.09c-4.04,0-7.32-3.18-7.32-7.09V0.2h2.01
	v12.91l0.01,0.01c0.12,2.74,2.45,4.93,5.3,4.93c2.86,0,5.19-2.19,5.3-4.93l0.01-0.01V0.2h2.01V12.91z M101.61,0.2v13.1L90.12,0.2
	h-2.64l1.01,1.15v18.36h2.01V3.65l11.11,12.67v3.39h2.01V0.2H101.61z M47.59,2.15V0.2h13.08v1.95h-5.54v17.55h-2.01V2.15H47.59z
	 M121.4,0.2v19.5h10.57v-1.95h-8.55v-6.83h7.55V8.98l-7.55-0.01V2.15h8.55V0.2H121.4z M167.43,19.71V0.2H178v1.94h-8.55v6.83
	l7.55,0.01v1.94h-7.55v6.83H178v1.95H167.43z M139.62,0.2h-3.82v19.5h3.82c5.56,0,10.07-4.37,10.07-9.75
	C149.68,4.57,145.18,0.2,139.62,0.2z M137.81,17.76h1.81c4.45,0,8.05-3.49,8.05-7.8c0-4.31-3.6-7.8-8.05-7.8h-1.81V17.76z"/>
</svg>
