<svg version="1.1" id="Layer_1" xmlns="http://www.w3.org/2000/svg" xmlns:xlink="http://www.w3.org/1999/xlink" x="0px" y="0px" viewBox="0 0 258 160" style="enable-background:new 0 0 258 160;" xml:space="preserve" wz_dt_ref="true">
<path id="logo-mark" d="M194.3,1c-5.4,0-9.7,4.3-9.7,9.7c0,3.1,1.4,5.8,3.7,7.6l-29.2,69c-1.8,4.3-5.7,5.6-8.7,5.5s-6.8-1.8-8.2-6.2
	c0,0,0,0,0-0.1l-6.8-19.2c2.2-1.8,3.5-4.5,3.5-7.5c0-3.1-1.5-5.9-3.8-7.7l8.5-21.3c2.1-5,0.4-10.8-3.1-15.1c-2.8-3.4-7-5.4-11.4-5.4
	c-4.4,0-8.6,2-11.4,5.4c-3.5,4.3-5.2,10.1-3.1,15.1l8.5,21.3c-2.3,1.8-3.8,4.5-3.8,7.7c0,3,1.4,5.7,3.5,7.5L116,86.5c0,0,0,0,0,0.1
	c-1.5,4.4-5.2,6.1-8.2,6.2s-6.9-1.3-8.7-5.5L69.9,18.2c2.1-1.8,3.5-4.5,3.5-7.4c0-5.4-4.3-9.7-9.7-9.7S54,5.4,54,10.8
	s4.3,9.7,9.7,9.7c0.3,0,0.7,0,1-0.1L94,89.6c2.3,5.5,7.6,9,13.6,9c0.2,0,0.4,0,0.6,0c6.2-0.3,11.4-4.2,13.4-10.1l6.7-18.9
	c0.3,0,0.6,0,0.9,0s0.6,0,0.9,0l6.7,18.9c2,5.9,7.2,9.8,13.4,10.1c0.2,0,0.4,0,0.6,0c5.9,0,11.2-3.5,13.6-9l29.3-69.2
	c0.2,0,0.5,0,0.7,0c5.4,0,9.7-4.3,9.7-9.7S199.7,1,194.3,1z M128.3,49.4c-2.3-5.6-8.5-20.6-8.7-21.5c-0.1-0.6-0.2-1.2-0.2-1.8V26
	c0-4.8,3.4-8.7,8-9.6c0.4-0.1,0.8-0.1,1.2-0.2c0.1,0,0.3,0,0.6,0l0,0l0,0c0.2,0,0.5,0,0.6,0c0.4,0,0.8,0.1,1.2,0.2
	c4.5,0.8,8,4.8,8,9.6v0.1c0,0.6,0,1.2-0.2,1.8c-0.2,0.9-6.4,15.9-8.7,21.5c-0.2,0.6-0.6,0.9-0.9,0.9l0,0l0,0
	C128.8,50.2,128.5,49.9,128.3,49.4z"></path>
<g id="logo-type">
	<path d="M24.8,127.6l4.8-15.7h7.3l-9.4,27.6h-5.2l-3.5-13.4l-3.4,13.4h-5.2L1,112h7.2l4.8,15.7l3.1-11.7h5.6L24.8,127.6z"></path>
	<path d="M47.6,112h6.7v27.6h-6.7V112z"></path>
	<path d="M89.4,112v27.6h-5.8l-8.4-15v15h-6.7V112h6l8.2,14.8V112H89.4z"></path>
	<path d="M126.6,139.5h-9.2l-7.2-8.4v8.4h-6.7V112h6.7v7.9l5.5-7.9h8.4l-10.4,13.6L126.6,139.5z"></path>
	<path d="M152.8,124.8c3.8,0.6,5.3,3.9,5.3,6.6c0,4-2.4,8.2-9.1,8.2h-12.1V112h11.3c5.1,0,8.4,3,8.4,7.4
		C156.6,120.9,155.8,123.9,152.8,124.8z M147.2,122.6c1.4,0,2.3-0.9,2.3-2.3s-0.6-2.5-2.2-2.5h-3.7v4.8H147.2z M143.6,128.1v5.6h4.3
		c2.1,0,3.1-1.4,3.1-2.8c0-1.3-0.9-2.8-3.1-2.8H143.6z"></path>
	<path d="M170.7,139.5V112h17.9v5.8h-11.2v5.3h9.8v5.7h-9.8v4.9H189v5.8H170.7z"></path>
	<path d="M201.9,112h10.9c8,0,12.5,6,12.5,13.8s-4.6,13.7-12.5,13.7h-10.9V112z M208.6,133.6h4.2c3.9,0,5.8-3.7,5.8-7.8
		c0-4.1-2-7.9-5.8-7.9h-4.2V133.6z"></path>
	<path d="M243.4,131.3c0.1,1.5,1.1,2.7,3.4,2.7c1.7,0,3.4-0.8,3.4-2.5c0-0.4,0-1.4-2.8-2.3l-3.2-1.1c-6.2-1.7-7.2-5.6-7.2-8.1
		c0-5,4.1-8.4,9.6-8.4c5.4,0,9.5,3.2,9.5,8.6h-6.7c0-1.5-0.8-2.6-2.9-2.6c-1.8,0-2.9,0.9-2.9,2.2c0,0.5,0.2,1.5,2.6,2.2l3.2,1
		c7.2,2.2,7.6,6.4,7.6,8.4c0,6.1-5.6,8.4-10.2,8.4c-6.2,0-10.2-3.4-10.2-8.6h6.8L243.4,131.3L243.4,131.3z"></path>
	<rect x="1" y="152.9" width="256" height="6.1"></rect>
</g>
</svg>