<?xml version="1.0" encoding="utf-8"?>
<!-- Generator: Adobe Illustrator 27.2.0, SVG Export Plug-In . SVG Version: 6.00 Build 0)  -->
<svg version="1.1" id="Layer_1" xmlns="http://www.w3.org/2000/svg" xmlns:xlink="http://www.w3.org/1999/xlink" x="0px" y="0px"
	 viewBox="0 0 360 114" style="enable-background:new 0 0 360 114;" xml:space="preserve">
<style type="text/css">
	.st0{fill:#1E306E;}
</style>
<g transform="matrix(3.75 0 0 3.75 100 143)">
	<path class="st0" d="M3.33-31.73c-4.6,0-8.1,3.3-8.1,8s3.5,8,8.1,8c2.2,0,3.9-1,4.6-1.8v1.6h3.6v-15.6h-3.6v1.6
		C7.23-30.73,5.43-31.73,3.33-31.73 M3.43-19.03c-2.7,0-4.7-2.1-4.7-4.7s2.1-4.7,4.7-4.7s4.6,2.1,4.6,4.7S6.03-19.03,3.43-19.03
		 M34.33-31.73c-2.1,0-3.7,0.8-4.7,1.8v-1.6h-3.5v23.8l3.5-0.4v-9.5c1,1.1,2.7,1.8,4.7,1.8c4.8,0,8-3.1,8-8
		C42.33-28.63,39.13-31.73,34.33-31.73 M34.23-19.03c-2.8,0-4.6-2-4.6-4.7s1.8-4.7,4.6-4.7s4.7,2,4.7,4.7
		C38.83-21.03,37.03-19.03,34.23-19.03 M69.33-31.73c-2.2,0-3.4,0.8-4.1,1.8v-1.6h-3.5v15.6h3.5v-8.6c0-2.3,1.6-3.9,3.8-3.9h0.3
		L69.33-31.73z M51.73-31.73c-4.6,0-8.2,3.6-8.2,8s3.6,8,8.2,8c3.8,0,6.9-2.1,7.9-4.9h-4.2c-0.5,1-1.8,1.7-3.7,1.7
		c-2.3,0-4.1-1.6-4.5-3.6h12.5c0.1-0.4,0.1-0.8,0.1-1.2C59.83-28.13,56.23-31.73,51.73-31.73 M47.43-25.63c0.5-1.6,2.2-2.9,4.3-2.9
		c2,0,3.8,1.3,4.3,2.9H47.43z M19.03-28.63c-0.7,0-1.5,0.3-1.5,1.2c0,1,1,1.3,2.9,2c2.6,1,3.9,2.2,3.9,4.6c0,2.5-2.1,5.1-5.7,5.1
		s-5.5-2.7-5.6-4.9h3.4c0.2,1,1,1.8,2.2,1.8c1.3,0,2.1-0.9,2.1-1.9c0-0.7-0.3-1.5-2.5-2.1c-2.4-0.6-4.1-1.9-4.1-4.5
		c0-2.4,2.1-4.3,4.8-4.3c2.4,0,3.9,1.7,4.6,2.8l-2.9,1.3C20.23-28.33,19.63-28.63,19.03-28.63"/>
	<path class="st0" d="M-15.37-38.13c-6.4,0-11.3,5-11.3,11.2s4.9,11.2,11.3,11.2c4.1,0,7.9-2.2,9.6-5.3l-3.3-1.8
		c-1.3,2.3-3.5,3.6-6.3,3.6c-2,0-4-0.8-5.3-2.2c-1.4-1.5-2.2-3.4-2.2-5.4s0.8-3.9,2.2-5.4c1.3-1.4,3.2-2.2,5.3-2.2
		c2.2,0,3.5,0.7,4.4,1.4c1,0.7,2,1.4,3.7,1.4c3.1,0,4.5-2.5,4.8-3.8l-3.5-0.7c0,0.1-0.3,1.1-1.3,1.1c-0.5,0-0.8-0.2-1.5-0.7
		C-10.07-36.93-11.77-38.13-15.37-38.13"/>
</g>
</svg>
