<svg xmlns="http://www.w3.org/2000/svg" width="600" height="99" fill="#001689"><path d="M551.7 0h-48.3v96.6H600V48.3C600 21.6 578.4 0 551.7 0M17 96.5H.1v-58L0 22.3h15.6V30h.1c3-4.9 10.5-9.9 21.1-9.9 18.1 0 31.9 11.9 31.9 35.7v40.6h-17V55.5c0-12.2-5.6-20.3-17.4-20.3-11.7 0-17.3 8.2-17.3 20.3v41z"/><path d="M156 74.4c-4.5 13.9-16.9 24.3-36.3 24.3C97.9 98.7 82 83.1 82 59.1c0-23.7 16.5-39 37.4-39 20.8 0 35.9 15.1 35.9 38.9v4.7H99.2c1.3 13.1 9.3 20.9 21.4 20.9 9.6 0 15-4.3 17.2-10.2H156zM99.2 50.8h38.4c-1-9.5-7.1-17.5-18.7-17.5-11 0-18.2 8.2-19.7 17.5m107.1 47.9c-20.6 0-38.4-13.6-38.4-39.3 0-25.5 18.4-39.3 39-39.3 18.8 0 32.3 11.4 35.4 26.3h-17.9c-2.1-6.1-7.9-11-17.5-11-12.9 0-22 9.5-22 24s9.1 24.2 21.8 24.2c10.1 0 16.3-5.3 18.2-11.4h18C239.8 87 225 98.7 206.3 98.7m87.3-1.6c-17.3 0-28.5-8.9-28.5-29.2V37.2h-14.8V22.4h14.8V0h7.7c5.1 0 9.2 4.1 9.2 9.2v13.2h20.6v14.8H282V67c0 11.9 7.1 14.8 14.8 14.8a35.72 35.72 0 0 0 6.7-.6V96c-2.3.7-6.2 1.1-9.9 1.1m22.1-37.5c0-23.3 14.7-39.4 37.5-39.4 8.9 0 20.9 5.2 24 12.5h.1V22.5h16.3l-.1 16.2v58h-16.3V86.3h-.1c-3.1 7.3-14.8 12.5-23.9 12.5-22.8-.1-37.5-15.9-37.5-39.2m61.4 0c0-15.1-9.8-23.9-22.1-23.9-12.6 0-22.1 8.8-22.1 23.9s9.5 23.6 22.1 23.6c11.8 0 22.1-8.5 22.1-23.6m77.2-22.4c-14.1 0-22.7 8-22.7 23.1v36.2h-16.9v-58l-.2-16.2h16.3v12.2h.3c2.8-8.3 11.1-14.4 21.7-14.4 3 0 4.8.3 4.8.3v16.8h-3.3z"/></svg>