<?xml version="1.0" encoding="utf-8"?>
<!-- Generator: Adobe Illustrator 27.2.0, SVG Export Plug-In . SVG Version: 6.00 Build 0)  -->
<svg version="1.1" id="Layer_1" xmlns="http://www.w3.org/2000/svg" xmlns:xlink="http://www.w3.org/1999/xlink" x="0px" y="0px"
	 viewBox="0 0 600 98.8" style="enable-background:new 0 0 600 98.8;" xml:space="preserve">
<style type="text/css">
	.st0{fill:#001689;}
</style>
<path class="st0" d="M551.7,0h-48.3v96.6H600V48.3C600,21.6,578.4,0,551.7,0 M17,96.5H0.1v-58L0,22.3h15.6V30h0.1
	c3-4.9,10.5-9.9,21.1-9.9c18.1,0,31.9,11.9,31.9,35.7v40.6h-17V55.5c0-12.2-5.6-20.3-17.4-20.3C22.6,35.2,17,43.4,17,55.5
	C17,55.5,17,96.5,17,96.5z"/>
<path class="st0" d="M156,74.4c-4.5,13.9-16.9,24.3-36.3,24.3C97.9,98.7,82,83.1,82,59.1c0-23.7,16.5-39,37.4-39
	c20.8,0,35.9,15.1,35.9,38.9v4.7H99.2c1.3,13.1,9.3,20.9,21.4,20.9c9.6,0,15-4.3,17.2-10.2H156z M99.2,50.8h38.4
	c-1-9.5-7.1-17.5-18.7-17.5C107.9,33.3,100.7,41.5,99.2,50.8 M206.3,98.7c-20.6,0-38.4-13.6-38.4-39.3c0-25.5,18.4-39.3,39-39.3
	c18.8,0,32.3,11.4,35.4,26.3h-17.9c-2.1-6.1-7.9-11-17.5-11c-12.9,0-22,9.5-22,24s9.1,24.2,21.8,24.2c10.1,0,16.3-5.3,18.2-11.4h18
	C239.8,87,225,98.7,206.3,98.7 M293.6,97.1c-17.3,0-28.5-8.9-28.5-29.2V37.2h-14.8V22.4h14.8V0h7.7c5.1,0,9.2,4.1,9.2,9.2v13.2h20.6
	v14.8H282V67c0,11.9,7.1,14.8,14.8,14.8c2.2,0,4.5-0.2,6.7-0.6V96C301.2,96.7,297.3,97.1,293.6,97.1 M315.7,59.6
	c0-23.3,14.7-39.4,37.5-39.4c8.9,0,20.9,5.2,24,12.5h0.1V22.5h16.3l-0.1,16.2v58h-16.3V86.3h-0.1c-3.1,7.3-14.8,12.5-23.9,12.5
	C330.4,98.7,315.7,82.9,315.7,59.6 M377.1,59.6c0-15.1-9.8-23.9-22.1-23.9c-12.6,0-22.1,8.8-22.1,23.9s9.5,23.6,22.1,23.6
	C366.8,83.2,377.1,74.7,377.1,59.6 M454.3,37.2c-14.1,0-22.7,8-22.7,23.1v36.2h-16.9v-58l-0.2-16.2h16.3v12.2h0.3
	c2.8-8.3,11.1-14.4,21.7-14.4c3,0,4.8,0.3,4.8,0.3v16.8L454.3,37.2L454.3,37.2z"/>
</svg>
