<?xml version="1.0" encoding="utf-8"?>
<!-- Generator: Adobe Illustrator 27.2.0, SVG Export Plug-In . SVG Version: 6.00 Build 0)  -->
<svg version="1.1" id="svg4476" xmlns:svg="http://www.w3.org/2000/svg"
	 xmlns="http://www.w3.org/2000/svg" xmlns:xlink="http://www.w3.org/1999/xlink" x="0px" y="0px" viewBox="0 0 452.71 391.14"
	 style="enable-background:new 0 0 452.71 391.14;" xml:space="preserve">
<style type="text/css">
	.st0{fill:#FFFFFF;}
	.st1{fill:#1891CA;}
</style>
<g id="layer1" transform="translate(-71.501953,-263.22258)">
	<path id="path78" class="st0" d="M501.88,604.13H93.83v-287.7h408.04V604.13z"/>
	<path id="path90" class="st1" d="M513.7,301.83c-4.24-18.71-15.55-26.3-26.04-31.24c-16.6-7.55-28.57-6.77-60.99,3.99
		c0.01-0.01-121.79,38.74-128.74,40.95l-128.89-40.96c-32.41-10.75-44.38-11.53-60.96-3.99c-10.51,4.95-21.81,12.53-26.05,31.25
		c-4.18,18.4-8.13,133.42-8.13,154.65c0,71.9,1.33,150.74,17.24,176.29c8.4,13.49,23.59,19.92,45.15,19.14
		c15.39-0.57,29.67-4.82,35.1-6.61c-0.02,0,119.7-36.99,126.49-39.08l126.51,39.08c5.41,1.8,19.69,6.05,35.09,6.61
		c21.55,0.78,36.74-5.65,45.14-19.14c15.9-25.55,17.24-104.39,17.24-176.29C521.83,435.25,517.87,320.23,513.7,301.83 M435.1,547.52
		c-13.32,6.92-125.66,55.03-137.24,56.47c-11.58-1.44-123.92-49.55-137.24-56.47c-12.16-5.76-61.38-25.93-61.38-90.47
		c0-56.47,46.9-78.94,78.75-92.77c13.8-5.99,116.25-46.24,120.01-46.24c3.77,0,105.92,40.25,119.72,46.24
		c31.85,13.83,78.75,36.3,78.75,92.77C496.48,521.59,447.26,541.76,435.1,547.52"/>
	<path id="path94" class="st0" d="M129.3,263.22c-1.14,0-2.25,0.03-3.34,0.11c-6.56,0.43-12.48,2.18-18.87,5.09l-0.01,0.01
		l-0.02,0.01C96.3,273.5,84.12,281.84,79.7,301.3c-1.14,5.04-2.13,15.57-3.09,29.3s-1.85,30.52-2.6,47.38
		c-1.51,33.73-2.5,67.73-2.5,78.49c0,35.96,0.33,73.69,2.66,105.7c2.33,32.01,6.42,58.17,14.94,71.85
		c8.9,14.29,25.18,21.07,47.25,20.27h0c15.76-0.58,30.18-4.88,35.73-6.72c0,0,0.01,0,0.01,0c0,0,0.01,0,0.02-0.01
		c0.01,0,0.02-0.01,0.04-0.01c0.06-0.02,0.14-0.05,0.25-0.08c0.23-0.07,0.56-0.17,1-0.31c0.88-0.27,2.17-0.67,3.81-1.18
		c3.28-1.02,7.99-2.47,13.65-4.22c11.33-3.5,26.5-8.19,41.89-12.94c30.45-9.41,61.15-18.89,65.1-20.11l125.76,38.85
		c5.53,1.84,19.97,6.15,35.75,6.73h0c22.07,0.8,38.35-5.97,47.25-20.27c8.52-13.68,12.61-39.84,14.94-71.85s2.66-69.74,2.66-105.7
		c0-10.76-0.99-44.76-2.5-78.49c-0.76-16.87-1.64-33.65-2.6-47.38s-1.94-24.26-3.09-29.3c-4.41-19.47-16.6-27.8-27.35-32.87
		l-0.01-0.01l-0.02-0.01c-8.52-3.88-16.21-5.7-25.7-5.08c-9.49,0.62-20.74,3.57-37,8.97v0c-0.01,0-0.01,0-0.02,0.01
		c-0.02,0.01-0.04,0.01-0.07,0.02c-0.06,0.02-0.15,0.05-0.26,0.08l-1.02,0.32c-0.89,0.28-2.2,0.7-3.88,1.23
		c-3.34,1.06-8.13,2.58-13.89,4.42c-11.53,3.67-26.97,8.58-42.63,13.56c-30.98,9.85-62.22,19.79-66.25,21.08L169.76,272.3
		c-16.25-5.39-27.5-8.34-36.98-8.96C131.59,263.26,130.43,263.22,129.3,263.22z M129.28,267.98c1.03,0.01,2.09,0.04,3.19,0.12
		c8.74,0.57,19.68,3.39,35.82,8.74l0.01,0l125.61,39.91c-0.75,0.25-1.4,0.45-2.36,0.79c-3.22,1.12-7.59,2.72-12.78,4.66
		c-10.37,3.87-23.96,9.09-37.87,14.5c-27.82,10.82-56.77,22.33-63.86,25.4h0c-15.97,6.93-35.91,16.09-51.98,30.83
		s-28.21,35.23-28.21,64.13c0,32.87,12.64,54.77,26.83,68.96c14.18,14.19,29.99,20.85,35.92,23.66
		c7.19,3.72,38.23,17.28,69.37,30.33c15.61,6.54,31.17,12.91,43.57,17.75c6.2,2.42,11.61,4.45,15.86,5.93
		c2.29,0.8,3.36,0.98,4.94,1.44c-6.19,1.91-32.99,10.19-61.98,19.15c-15.39,4.75-30.56,9.44-41.89,12.94
		c-5.66,1.75-10.37,3.2-13.65,4.22c-1.64,0.51-2.93,0.91-3.81,1.18c-0.44,0.14-0.78,0.24-1,0.31c-0.11,0.04-0.2,0.06-0.26,0.08
		c-0.03,0.01-0.05,0.02-0.07,0.02c-0.01,0-0.05,0.01-0.06,0.02c-5.31,1.76-19.43,5.94-34.44,6.49
		c-21.04,0.76-35.14-5.34-43.04-18.02c-7.39-11.87-11.92-37.9-14.23-69.68s-2.65-69.42-2.65-105.35c0-10.47,0.99-44.6,2.5-78.28
		c0.76-16.84,1.64-33.59,2.6-47.26c0.96-13.67,2.03-24.42,2.98-28.58c4.08-17.95,14.48-24.78,24.73-29.61
		c6.04-2.75,11.26-4.31,17.18-4.68C127.24,268,128.25,267.97,129.28,267.98L129.28,267.98z M466.44,267.98
		c1.03-0.01,2.04,0.02,3.03,0.09c5.92,0.37,11.14,1.94,17.19,4.69c10.24,4.83,20.65,11.65,24.72,29.6v0
		c0.94,4.16,2.02,14.91,2.98,28.58s1.84,30.42,2.6,47.26c1.51,33.68,2.5,67.81,2.5,78.28c0,35.93-0.34,73.58-2.65,105.35
		c-2.31,31.77-6.84,57.81-14.23,69.68h0c-7.9,12.68-21.99,18.78-43.03,18.02c-15.01-0.55-29.14-4.74-34.42-6.49l-0.02-0.01
		l-122.72-37.91c1.58-0.46,2.65-0.64,4.95-1.44c4.25-1.48,9.66-3.51,15.86-5.93c12.4-4.83,27.96-11.2,43.57-17.75
		c31.14-13.05,62.18-26.61,69.37-30.33c5.93-2.81,21.73-9.47,35.92-23.66c14.18-14.19,26.83-36.09,26.83-68.96
		c0-28.89-12.13-49.39-28.2-64.13s-36.02-23.89-51.98-30.83c-7.08-3.07-35.96-14.58-63.71-25.4c-13.87-5.41-27.43-10.63-37.77-14.5
		c-5.17-1.94-9.53-3.54-12.74-4.66c-0.99-0.35-1.66-0.56-2.43-0.81c5.97-1.9,33.87-10.77,63.61-20.23
		c15.66-4.98,31.1-9.89,42.62-13.56c5.76-1.83,10.55-3.35,13.89-4.42c1.67-0.53,2.98-0.95,3.88-1.23c0.45-0.14,0.79-0.25,1.02-0.32
		c0.12-0.04,0.2-0.07,0.26-0.08c0.03-0.01,0.05-0.02,0.07-0.02c0.01,0,0.05-0.02,0.05-0.02c16.15-5.36,27.09-8.17,35.84-8.74
		C464.34,268.02,465.4,267.99,466.44,267.98L466.44,267.98z M298,320.46c0.02,0.01,0.03,0,0.06,0.01c0.24,0.06,0.6,0.16,1.05,0.3
		c0.91,0.28,2.19,0.71,3.76,1.26c3.15,1.1,7.49,2.69,12.64,4.62c10.3,3.86,23.85,9.08,37.71,14.48
		c27.72,10.81,56.82,22.42,63.54,25.33c15.89,6.9,35.32,15.9,50.66,29.97s26.66,33.04,26.66,60.62c0,31.66-11.97,52.12-25.43,65.59
		c-13.47,13.47-28.35,19.77-34.59,22.72l-0.04,0.02l-0.04,0.02c-6.23,3.24-37.92,17.14-69.09,30.21
		c-15.59,6.53-31.12,12.89-43.46,17.7c-6.17,2.4-11.54,4.42-15.7,5.87c-4.01,1.4-6.89,2.2-7.89,2.35c-1-0.16-3.88-0.95-7.89-2.35
		c-4.16-1.45-9.53-3.47-15.7-5.87c-12.34-4.81-27.87-11.17-43.46-17.7c-31.17-13.06-62.86-26.97-69.09-30.21l-0.04-0.02l-0.04-0.02
		c-6.23-2.95-21.12-9.25-34.59-22.72c-13.47-13.47-25.43-33.93-25.43-65.59c0-27.57,11.32-46.55,26.66-60.62
		c15.34-14.07,34.77-23.07,50.66-29.97c6.71-2.91,35.89-14.52,63.69-25.33c13.9-5.4,27.48-10.62,37.81-14.48
		c5.17-1.93,9.52-3.52,12.68-4.62c1.58-0.55,2.86-0.98,3.77-1.26c0.46-0.14,0.82-0.25,1.06-0.3
		C297.97,320.46,297.98,320.47,298,320.46L298,320.46z"/>
	<path id="path98" d="M219.35,379.04c-1.6-0.03-3.33,0.03-5.17,0.23c-11,1.15-17.37,8.65-20.84,12.39
		c-3.47,3.75-14.48,16.42-12.74,40.92c1.28,17.93,6.66,36.01,6.66,44.65s-0.87,16.42-8.11,20.17c-7.24,3.75-20.26-0.28-29.53-15.84
		c-2.02-3.46-8.11-5.76-12.16-2.3c-4.05,3.46-3.18,12.39,1.16,17.29c4.35,4.89,16.5,16.42,35.61,9.51
		c19.11-6.92,30.98-32.27,28.66-49.84s-12.16-51.28-4.05-61.08c8.11-9.79,17.67-6.91,21.43-2.59c5.54,6.36,12.45,17,18.82,12.1
		c6.37-4.9,2.32-13.54-0.58-17C235.97,384.6,230.57,379.28,219.35,379.04z M372.56,379.84l-32.14,74.91
		c-7.82,17.86-25.22,44.66-29.54,44.66c-4.63,0,0-15.27,4.35-25.64l23.16-53.59H321.6l-5.21,12.39c0.29-3.75,0.87-14.41-6.95-14.41
		c-13.31,0-29.53,21.03-36.76,33.42c-8.14,13.94-32.43,50.42-45.17,52.15c-8.11-0.58-4.05-25.06-2.02-30.54
		c4.92,1.72,13.93-1.09,18.82-3.75c3.18-1.73,24.61-18.73,24.61-36.59c0-17.37-10.71-16.42-16.5-14.98
		c-28.27,9.17-47.88,45.95-46.04,74.33c0.48,7.4,5.02,17.29,14.77,17.29c16.79,0,35.03-28.81,39.09-33.71
		c-0.87,3.17-8.39,33.71,5.79,33.71c12.74,0,25.77-20.74,28.08-24.49c-0.29,2.6-4.92,24.49,5.51,24.49
		c12.16,0,24.32-21.04,28.95-27.38c-0.87,2.88-6.08,27.38,6.08,27.38c12.16,0,24.03-19.59,28.37-25.64
		c-0.77,6.14-5.69,25.64,6.95,25.64c11.58,0,20.56-17.29,24.9-22.47l-13.03,29.68c-6.66,14.98-12.16,14.69-16.5,14.4
		s-13.9-6.62-18.24-9.21c-4.35-2.6-9.85-3.46-12.16-1.45s-2.9,9.51,3.47,13.26s17.37,7.78,37.64-1.73
		c20.26-9.51,31.55-33.42,35.9-43.51l29.54-68.28h-17.95l-16.51,38.04c-3.76,8.64-20.26,41.2-26.35,41.2
		c-6.08,0,1.45-18.15,4.05-24.49l23.74-54.74h-17.95l-15.34,35.44c-5.21,12.39-22.87,43.79-29.24,43.79s1.74-19.88,5.79-29.68
		l39.09-89.89H372.56z M256.53,421.6c0.17,0,0.34,0.01,0.51,0.02c6.75,0.73-9.45,36.15-19.69,44.08c-2.6,2.02-6.37,5.77-10.13,3.46
		C227.49,461.5,245.73,421.74,256.53,421.6L256.53,421.6z M310.57,424.2c0.21-0.02,0.41-0.02,0.6,0.02
		c3.77,1.15-0.29,19.3-8.1,36.59c-6.49,14.35-19.4,38.61-26.35,38.61c-6.95,0,3.76-30.54,7.52-38.61
		C287.9,452.99,304.04,424.9,310.57,424.2L310.57,424.2z M435.27,487.31c-5.96,0-10.68,4.69-10.68,10.6s4.72,10.59,10.68,10.59
		c5.96,0,10.68-4.69,10.68-10.59S441.23,487.31,435.27,487.31z M435.27,489.04c4.88,0,8.94,3.86,8.94,8.88
		c0,4.98-4.06,8.87-8.94,8.87c-4.88,0-8.94-3.88-8.94-8.87C426.33,492.89,430.39,489.04,435.27,489.04z M431.15,492.03v11.92h1.74
		v-5.51h2.22l3.06,5.51h1.98l-3.04-5.51c1.6-0.05,3.2-0.91,3.2-3.26c0-2.51-1.95-3.16-4.12-3.16H431.15z M432.89,493.75h2.98
		c1.44,0,2.71,0.11,2.71,1.62c0,1.61-2.22,1.35-3.85,1.35h-1.84V493.75z"/>
</g>
</svg>
